<svg width="513" height="512" viewBox="0 0 513 512" fill="none" xmlns="http://www.w3.org/2000/svg">
  <g clip-path="url(#clip0_2411_2324)">
    <path
      d="M65.1882 157.43C60.5763 162.042 57.7421 168.135 57.186 174.634C56.6299 181.133 58.3876 187.619 62.1488 192.948C66.0456 198.459 71.8223 202.355 78.3917 203.904C84.961 205.453 91.8698 204.546 97.8177 201.356L183.326 282.611C180.238 288.012 178.585 294.116 178.526 300.338C178.467 306.56 180.004 312.693 182.99 318.153L63.6544 427.522C58.444 424.336 52.4157 422.744 46.3118 422.941C40.2079 423.138 34.2949 425.116 29.3009 428.631C25.9418 431.002 23.0826 434.012 20.8865 437.488C18.6905 440.963 17.2005 444.838 16.5018 448.89C15.8031 452.941 15.9093 457.091 16.8143 461.102C17.7193 465.113 19.4055 468.906 21.7764 472.265C24.1474 475.624 27.1568 478.483 30.6327 480.679C34.1087 482.875 37.9831 484.365 42.0349 485.064C46.0866 485.763 50.2363 485.657 54.2471 484.751C58.2578 483.846 62.051 482.16 65.4101 479.789C69.8894 476.621 73.4574 472.33 75.7564 467.348C78.0555 462.366 79.005 456.868 78.5096 451.403L297.682 366.286C302.422 372.347 309.31 376.353 316.922 377.476C324.534 378.6 332.286 376.753 338.575 372.32C345.071 367.734 349.48 360.756 350.831 352.92C352.182 345.085 350.365 337.033 345.78 330.537C344.637 328.934 343.338 327.447 341.903 326.098L385.241 239.893C389.358 240.666 393.589 240.604 397.682 239.712C401.775 238.82 405.647 237.116 409.07 234.701C412.429 232.33 415.288 229.32 417.484 225.844C419.68 222.368 421.17 218.494 421.869 214.442C422.568 210.391 422.461 206.241 421.556 202.23C420.651 198.219 418.965 194.426 416.594 191.067C412.416 185.16 406.321 180.883 399.345 178.962L398.983 146.179C400.222 145.622 401.405 144.948 402.517 144.168C405.667 141.943 408.162 138.914 409.741 135.396C411.32 131.878 411.924 128 411.492 124.168L453.312 99.865C457.857 103.826 463.6 106.149 469.621 106.46C475.642 106.771 481.594 105.054 486.523 101.583C489.414 99.5427 491.874 96.9532 493.764 93.9622C495.654 90.9713 496.936 87.6374 497.537 84.151C498.138 80.6646 498.047 77.0938 497.268 73.6427C496.489 70.1916 495.038 66.9276 492.998 64.0372C488.878 58.1999 482.608 54.2385 475.567 53.0243C468.526 51.8102 461.291 53.4428 455.453 57.563C453.317 59.0797 451.414 60.8997 449.804 62.9658L406.388 47.7435C406.154 43.5361 404.746 39.4783 402.324 36.0301C400.616 33.61 398.448 31.55 395.944 29.9678C393.44 28.3856 390.648 27.3122 387.729 26.8087C384.81 26.3052 381.821 26.3816 378.931 27.0335C376.042 27.6854 373.309 28.9001 370.889 30.6082C366.158 33.9559 362.898 38.9959 361.784 44.683C360.669 50.37 361.786 56.2679 364.904 61.1533L312.132 136.943C308.787 136.121 305.305 136.024 301.92 136.661C298.535 137.297 295.326 138.652 292.509 140.633C290.447 142.1 288.63 143.883 287.123 145.916L250.949 135.763C250.908 129.371 248.913 123.146 245.231 117.922C240.442 111.138 233.155 106.534 224.973 105.122C216.79 103.711 208.382 105.608 201.598 110.397C197.438 113.333 194.056 117.24 191.747 121.778C189.438 126.316 188.271 131.349 188.346 136.441L107.373 161.061C107.368 161.054 107.363 161.046 107.358 161.039C105.263 158.07 102.604 155.544 99.5318 153.603C96.4601 151.662 93.0362 150.345 89.4555 149.728C85.8749 149.11 82.2077 149.204 78.6633 150.004C75.1189 150.803 71.7668 152.293 68.7982 154.389C67.5104 155.298 66.3028 156.315 65.1882 157.43Z"
      fill="#0E0E0E" />
    <path fill-rule="evenodd" clip-rule="evenodd"
      d="M62.1488 192.948C58.3876 187.619 56.6299 181.133 57.186 174.634C57.7421 168.135 60.5763 162.042 65.1882 157.43C66.3027 156.315 67.5104 155.298 68.7982 154.389C71.7668 152.293 75.1189 150.803 78.6633 150.004C82.2077 149.204 85.8749 149.11 89.4555 149.728C93.0361 150.345 96.4601 151.662 99.5318 153.603C102.604 155.544 105.263 158.07 107.358 161.039L107.373 161.061L188.346 136.441C188.271 131.349 189.438 126.316 191.747 121.778C194.056 117.239 197.438 113.333 201.598 110.397C208.382 105.608 216.79 103.711 224.973 105.122C233.155 106.534 240.443 111.138 245.231 117.922C248.913 123.146 250.908 129.371 250.949 135.763L287.123 145.916C288.63 143.883 290.447 142.1 292.509 140.633C295.326 138.652 298.535 137.297 301.92 136.661C305.305 136.024 308.787 136.12 312.132 136.943L364.904 61.1533C361.786 56.2678 360.669 50.37 361.784 44.6829C362.898 38.9959 366.158 33.9559 370.889 30.6082C373.309 28.9001 376.042 27.6854 378.931 27.0335C381.821 26.3816 384.81 26.3052 387.729 26.8087C390.648 27.3121 393.44 28.3856 395.944 29.9678C398.448 31.55 400.616 33.61 402.324 36.0301C404.746 39.4783 406.154 43.5361 406.388 47.7435L449.804 62.9658C451.414 60.8997 453.317 59.0796 455.453 57.563C461.291 53.4427 468.526 51.8101 475.567 53.0243C482.608 54.2385 488.878 58.1999 492.998 64.0372C495.038 66.9276 496.489 70.1915 497.268 73.6427C498.047 77.0938 498.138 80.6645 497.537 84.151C496.936 87.6374 495.654 90.9713 493.764 93.9622C491.874 96.9532 489.414 99.5427 486.523 101.583C481.594 105.054 475.642 106.771 469.621 106.46C463.6 106.149 457.857 103.826 453.312 99.865L411.492 124.168C411.924 128 411.32 131.878 409.741 135.396C408.162 138.914 405.667 141.943 402.517 144.168C401.405 144.948 400.222 145.622 398.983 146.179L399.345 178.962C406.321 180.883 412.416 185.16 416.594 191.067C418.965 194.426 420.651 198.219 421.556 202.23C422.461 206.241 422.568 210.39 421.869 214.442C421.17 218.494 419.68 222.368 417.484 225.844C415.288 229.32 412.429 232.33 409.07 234.701C405.647 237.116 401.775 238.82 397.682 239.712C393.589 240.604 389.358 240.666 385.241 239.893L341.903 326.098C343.338 327.447 344.637 328.934 345.78 330.537C350.365 337.033 352.182 345.085 350.831 352.92C349.48 360.756 345.071 367.734 338.575 372.32C332.286 376.753 324.534 378.599 316.922 377.476C309.31 376.353 302.422 372.347 297.682 366.286L78.5096 451.403C79.0049 456.868 78.0555 462.366 75.7564 467.348C73.4574 472.33 69.8894 476.621 65.41 479.789C62.051 482.16 58.2578 483.846 54.2471 484.751C50.2363 485.656 46.0866 485.763 42.0349 485.064C37.9831 484.365 34.1086 482.875 30.6327 480.679C27.1567 478.483 24.1474 475.624 21.7764 472.265C19.4055 468.906 17.7193 465.113 16.8143 461.102C15.9093 457.091 15.8031 452.941 16.5018 448.89C17.2005 444.838 18.6904 440.963 20.8865 437.487C23.0826 434.012 25.9418 431.002 29.3009 428.631C34.2948 425.116 40.2079 423.138 46.3118 422.941C52.4157 422.744 58.444 424.336 63.6544 427.522L182.99 318.153C180.004 312.693 178.467 306.56 178.526 300.338C178.585 294.116 180.238 288.012 183.326 282.611L97.8177 201.356C91.8698 204.546 84.961 205.453 78.3917 203.904C71.8223 202.355 66.0456 198.459 62.1488 192.948ZM94.1563 218.65C87.8741 220.07 81.3021 220.062 74.9366 218.561C64.7919 216.17 55.871 210.153 49.8533 201.642L49.8458 201.632C44.0375 193.403 41.3232 183.386 42.182 173.35C43.0408 163.314 47.4175 153.905 54.5394 146.782M94.1563 218.65L165.48 286.425C164.194 290.885 163.512 295.516 163.468 300.195C163.423 304.877 164.018 309.524 165.221 314.011L60.6716 409.829C55.8855 408.39 50.873 407.727 45.8257 407.89C36.7859 408.182 28.0289 411.111 20.633 416.317L20.6251 416.323L20.6172 416.328C15.6423 419.84 11.4079 424.297 8.15566 429.444C4.90334 434.592 2.69679 440.33 1.66201 446.331C0.627237 452.331 0.784496 458.477 2.12481 464.417C3.46514 470.356 5.96229 475.974 9.47361 480.949C12.9848 485.923 17.4416 490.158 22.5895 493.41C27.7373 496.662 33.4753 498.869 39.4758 499.904C45.4763 500.939 51.6219 500.781 57.5617 499.441C63.5017 498.101 69.1193 495.603 74.0939 492.092L74.1068 492.083C80.7406 487.39 86.0247 481.036 89.4296 473.658C91.1621 469.904 92.3771 465.951 93.056 461.908L294.2 383.792C300.168 388.287 307.211 391.265 314.724 392.374C326.159 394.061 337.805 391.288 347.252 384.627L347.259 384.622C357.018 377.734 363.641 367.251 365.671 355.479C367.536 344.662 365.382 333.572 359.676 324.272L394.314 255.371C396.52 255.214 398.717 254.899 400.888 254.426C406.949 253.105 412.684 250.581 417.753 247.004C422.728 243.492 426.963 239.035 430.215 233.888C433.467 228.74 435.674 223.002 436.709 217.001C437.743 211.001 437.586 204.855 436.246 198.915C434.905 192.976 432.408 187.358 428.897 182.383L428.888 182.371C425.012 176.891 420.022 172.358 414.295 169.037L414.131 154.17C418.111 150.702 421.306 146.404 423.48 141.561C424.699 138.844 425.577 136 426.102 133.094L452.969 117.481C457.913 119.833 463.302 121.212 468.843 121.499C478.23 121.984 487.508 119.307 495.194 113.895L495.2 113.891L495.207 113.886C499.713 110.705 503.549 106.668 506.495 102.006C509.44 97.3429 511.439 92.1455 512.377 86.7101C513.314 81.2748 513.172 75.7081 511.957 70.328C510.743 64.9478 508.482 59.8594 505.301 55.3533C498.878 46.2531 489.102 40.0773 478.126 38.1845C467.149 36.2917 455.87 38.8368 446.769 45.2601L446.752 45.2724L446.735 45.2847C446.532 45.4284 446.331 45.5737 446.132 45.7208L419.276 36.3047C418.145 33.1493 416.592 30.144 414.647 27.3745L414.627 27.3467C411.779 23.3109 408.164 19.8757 403.988 17.2372C399.811 14.5986 395.157 12.8085 390.289 11.969C385.421 11.1294 380.436 11.2567 375.617 12.3439C370.799 13.4311 366.241 15.4566 362.205 18.305L362.19 18.3161C354.301 23.8987 348.864 32.3035 347.006 41.7873C345.849 47.6896 346.134 53.728 347.767 59.4108L304.729 121.221C302.857 121.3 300.988 121.513 299.137 121.861C293.638 122.895 288.423 125.096 283.846 128.316L283.811 128.34L283.777 128.365C283.454 128.594 283.135 128.828 282.82 129.067L264.412 123.901C263.006 118.68 260.69 113.715 257.539 109.246L257.534 109.238C250.442 99.1911 239.65 92.3727 227.532 90.2827C215.414 88.1927 202.961 91.0023 192.914 98.0934C186.753 102.442 181.745 108.228 178.326 114.949C176.714 118.116 175.478 121.446 174.633 124.871L111.852 143.959C110.494 142.846 109.066 141.814 107.575 140.872C102.832 137.875 97.5443 135.842 92.0149 134.888C86.4854 133.934 80.8223 134.079 75.3489 135.314C69.8755 136.549 64.6988 138.85 60.1146 142.086C58.1258 143.49 56.2604 145.061 54.5394 146.782"
      fill="#E9E9E9" />
    <path
      d="M112.381 177.646L193.422 153.004C193.632 153.35 193.849 153.692 194.072 154.03C198.004 159.584 203.639 163.705 210.123 165.77L207.255 265.072C202.991 266.001 198.928 267.69 195.261 270.057L109.742 188.793C111.39 185.302 112.289 181.505 112.381 177.646Z"
      fill="#66C2A5" />
    <path
      d="M227.444 166.261C231.121 165.327 234.599 163.733 237.706 161.555C241.136 159.12 244.04 156.018 246.245 152.435L282.432 162.591C282.821 166.775 284.298 170.785 286.716 174.222C290.402 179.444 296.011 182.988 302.31 184.074C308.609 185.16 315.082 183.699 320.304 180.013C320.732 179.71 321.15 179.392 321.558 179.061L360.659 201.614C359.546 206.097 359.438 210.771 360.343 215.301L242.237 276.687C237.557 271.345 231.417 267.488 224.573 265.592L227.444 166.261Z"
      fill="#1B9E77" />
    <path
      d="M377.189 73.8262L379.896 107.647C379.135 108.051 378.398 108.5 377.69 108.993C373.025 112.285 369.86 117.296 368.89 122.922C367.919 128.548 369.224 134.329 372.516 138.993C374.821 142.25 377.985 144.801 381.657 146.364L382.02 179.162C378.784 180.124 375.725 181.603 372.961 183.542C371.665 184.466 370.441 185.488 369.301 186.599L330.192 164.044C331.133 158.028 329.762 151.879 326.354 146.833L377.189 73.8262Z"
      fill="#66C2A5" />
    <path
      d="M394.19 69.0765C395.131 68.6034 396.037 68.065 396.903 67.4652C398.276 66.4845 399.535 65.3529 400.655 64.0916L444.074 79.3162C444.054 81.188 444.229 83.0568 444.596 84.8923L402.764 109.204C401.053 107.958 399.168 106.971 397.17 106.275L394.19 69.0765Z"
      fill="#B3E2CD" />
    <path
      d="M87.1985 429.444L194.685 330.936C200.803 335.02 208.014 337.156 215.369 337.061C222.724 336.966 229.878 334.645 235.888 330.405C238.844 328.303 241.469 325.772 243.676 322.895L291.569 344.127C291.321 346.118 291.274 348.128 291.428 350.129L87.1985 429.444Z"
      fill="#1B9E77" />
    <path
      d="M250.234 292.056L368.341 230.669C368.805 231.154 369.284 231.623 369.778 232.077L326.429 318.306C322.543 317.627 318.562 317.721 314.713 318.583C310.863 319.446 307.222 321.059 303.997 323.331C301.997 324.755 300.179 326.419 298.584 328.286L250.717 307.067C251.601 302.084 251.436 296.972 250.234 292.056Z"
      fill="#0D4E3B" />
  </g>
  <defs>
    <clipPath id="clip0_2411_2324">
      <rect width="512" height="512" fill="white" transform="translate(0.987579)" />
    </clipPath>
  </defs>
</svg>