<svg width="513" height="512" viewBox="0 0 513 512" fill="none" xmlns="http://www.w3.org/2000/svg">
  <path
    d="M112.763 181.88C109.296 185.348 107.164 189.93 106.746 194.817C106.328 199.704 107.65 204.581 110.478 208.588C113.408 212.732 117.752 215.662 122.692 216.826C127.632 217.991 132.827 217.309 137.299 214.911L201.598 276.01C199.275 280.072 198.032 284.661 197.988 289.34C197.944 294.019 199.099 298.631 201.345 302.736L111.61 384.976C107.692 382.581 103.159 381.383 98.5693 381.532C93.9794 381.68 89.5331 383.167 85.7779 385.811C83.252 387.593 81.102 389.856 79.4507 392.47C77.7993 395.084 76.679 397.997 76.1536 401.044C75.6282 404.091 75.708 407.211 76.3885 410.227C77.0691 413.243 78.337 416.095 80.1198 418.621C81.9027 421.147 84.1656 423.297 86.7793 424.948C89.3931 426.6 92.3065 427.72 95.3532 428.245C98.4 428.771 101.52 428.691 104.536 428.01C107.552 427.33 110.404 426.062 112.93 424.279C116.299 421.896 118.981 418.67 120.71 414.924C122.439 411.178 123.153 407.043 122.781 402.934L287.588 338.93C291.152 343.487 296.332 346.5 302.056 347.345C307.779 348.189 313.609 346.801 318.337 343.467C323.222 340.019 326.537 334.772 327.553 328.88C328.569 322.987 327.203 316.933 323.755 312.048C322.896 310.843 321.919 309.725 320.84 308.711L353.428 243.888C356.524 244.469 359.705 244.423 362.783 243.752C365.861 243.082 368.773 241.8 371.346 239.984C373.872 238.201 376.022 235.938 377.673 233.324C379.325 230.711 380.445 227.797 380.971 224.751C381.496 221.704 381.416 218.583 380.736 215.568C380.055 212.552 378.787 209.699 377.004 207.174C373.862 202.732 369.279 199.516 364.034 198.071L363.761 173.42C364.693 173.001 365.583 172.494 366.419 171.907C368.788 170.235 370.664 167.957 371.851 165.311C373.038 162.666 373.493 159.75 373.168 156.869L404.614 138.594C408.032 141.573 412.35 143.319 416.878 143.553C421.406 143.787 425.881 142.496 429.588 139.886C431.761 138.351 433.611 136.404 435.032 134.155C436.453 131.906 437.417 129.399 437.869 126.778C438.322 124.156 438.253 121.471 437.667 118.876C437.082 116.281 435.991 113.826 434.457 111.653C431.358 107.264 426.643 104.285 421.349 103.372C416.054 102.459 410.614 103.686 406.224 106.785C404.618 107.925 403.187 109.294 401.976 110.847L369.33 99.4009C369.154 96.2372 368.095 93.1859 366.274 90.593C364.99 88.7732 363.359 87.2242 361.476 86.0344C359.593 84.8447 357.494 84.0375 355.299 83.6589C353.104 83.2803 350.856 83.3378 348.684 83.828C346.511 84.3182 344.456 85.2316 342.636 86.5159C339.079 89.0333 336.627 92.8231 335.789 97.0995C334.951 101.376 335.791 105.811 338.135 109.484L298.453 166.475C295.938 165.856 293.32 165.784 290.775 166.262C288.229 166.741 285.816 167.76 283.698 169.249C282.148 170.353 280.781 171.693 279.648 173.222L252.447 165.587C252.416 160.781 250.916 156.1 248.147 152.172C244.546 147.07 239.067 143.608 232.914 142.547C226.761 141.486 220.438 142.913 215.337 146.513C212.209 148.721 209.666 151.659 207.93 155.071C206.193 158.484 205.316 162.269 205.373 166.097L144.484 184.61C144.481 184.605 144.477 184.599 144.473 184.594C142.898 182.362 140.898 180.462 138.588 179.002C136.278 177.543 133.704 176.553 131.011 176.088C128.319 175.624 125.561 175.694 122.896 176.296C120.231 176.897 117.71 178.018 115.478 179.593C114.51 180.277 113.602 181.042 112.763 181.88Z"
    fill="#0E0E0E" />
  <path fill-rule="evenodd" clip-rule="evenodd"
    d="M110.478 208.588C107.65 204.581 106.328 199.704 106.746 194.817C107.164 189.93 109.295 185.348 112.763 181.88C113.602 181.042 114.51 180.277 115.478 179.593C117.71 178.018 120.231 176.897 122.896 176.296C125.561 175.694 128.319 175.624 131.011 176.088C133.704 176.553 136.278 177.543 138.588 179.002C140.898 180.462 142.898 182.362 144.473 184.594L144.484 184.61L205.373 166.097C205.316 162.269 206.193 158.484 207.93 155.071C209.666 151.659 212.209 148.721 215.337 146.513C220.438 142.913 226.761 141.486 232.914 142.547C239.067 143.608 244.546 147.07 248.147 152.172C250.916 156.1 252.416 160.781 252.447 165.587L279.648 173.222C280.781 171.693 282.148 170.353 283.698 169.25C285.816 167.76 288.229 166.741 290.775 166.262C293.32 165.784 295.938 165.856 298.453 166.475L338.135 109.484C335.791 105.811 334.951 101.376 335.789 97.0996C336.627 92.8232 339.079 89.0333 342.636 86.516C344.456 85.2316 346.511 84.3182 348.684 83.828C350.856 83.3378 353.104 83.2804 355.299 83.659C357.494 84.0375 359.593 84.8447 361.476 86.0345C363.359 87.2242 364.99 88.7732 366.274 90.593C368.095 93.1859 369.154 96.2372 369.33 99.401L401.976 110.847C403.187 109.294 404.618 107.925 406.224 106.785C410.614 103.687 416.054 102.459 421.349 103.372C426.643 104.285 431.358 107.264 434.457 111.653C435.991 113.826 437.082 116.281 437.667 118.876C438.253 121.471 438.322 124.156 437.869 126.778C437.417 129.399 436.453 131.906 435.032 134.155C433.611 136.404 431.761 138.352 429.588 139.886C425.881 142.496 421.406 143.787 416.878 143.553C412.35 143.319 408.032 141.573 404.614 138.594L373.168 156.869C373.493 159.75 373.038 162.666 371.851 165.311C370.664 167.957 368.788 170.235 366.419 171.907C365.583 172.494 364.693 173.001 363.761 173.42L364.034 198.071C369.279 199.516 373.862 202.732 377.004 207.174C378.787 209.699 380.055 212.552 380.736 215.568C381.416 218.583 381.496 221.704 380.971 224.751C380.445 227.797 379.325 230.711 377.673 233.324C376.022 235.938 373.872 238.201 371.346 239.984C368.773 241.8 365.861 243.082 362.783 243.753C359.705 244.423 356.524 244.469 353.428 243.888L320.84 308.711C321.919 309.725 322.896 310.843 323.755 312.048C327.203 316.933 328.569 322.988 327.553 328.88C326.537 334.772 323.222 340.019 318.337 343.467C313.609 346.801 307.779 348.189 302.056 347.345C296.332 346.5 291.152 343.487 287.588 338.93L122.781 402.934C123.153 407.043 122.439 411.178 120.71 414.924C118.981 418.67 116.299 421.896 112.93 424.279C110.404 426.062 107.552 427.33 104.536 428.01C101.52 428.691 98.3999 428.771 95.3532 428.245C92.3065 427.72 89.3931 426.6 86.7793 424.948C84.1656 423.297 81.9027 421.147 80.1198 418.621C78.337 416.095 77.0691 413.243 76.3885 410.227C75.708 407.211 75.6281 404.091 76.1535 401.044C76.6789 397.997 77.7993 395.084 79.4506 392.47C81.102 389.856 83.252 387.593 85.7779 385.811C89.5331 383.167 93.9794 381.68 98.5692 381.532C103.159 381.383 107.692 382.581 111.61 384.976L201.345 302.736C199.099 298.631 197.944 294.019 197.988 289.34C198.032 284.661 199.275 280.072 201.598 276.01L137.299 214.911C132.827 217.309 127.632 217.991 122.692 216.826C117.752 215.662 113.408 212.732 110.478 208.588ZM134.546 227.915C129.822 228.982 124.88 228.976 120.094 227.848C112.465 226.05 105.757 221.525 101.232 215.126L101.227 215.118C96.8591 208.93 94.8181 201.398 95.4639 193.851C96.1096 186.305 99.4007 179.229 104.756 173.873M134.546 227.915L188.178 278.878C187.211 282.232 186.698 285.714 186.665 289.233C186.632 292.754 187.079 296.248 187.983 299.621L109.367 371.672C105.768 370.59 101.999 370.092 98.2037 370.214C91.4062 370.434 84.8214 372.636 79.26 376.551L79.254 376.555L79.2481 376.559C75.5073 379.2 72.3232 382.551 69.8776 386.422C67.432 390.293 65.7728 394.608 64.9947 399.12C64.2166 403.632 64.3349 408.253 65.3427 412.72C66.3506 417.186 68.2283 421.41 70.8687 425.151C73.5089 428.892 76.8602 432.076 80.7312 434.521C84.6021 436.967 88.9168 438.626 93.4289 439.404C97.941 440.182 102.562 440.064 107.029 439.056C111.495 438.048 115.719 436.171 119.46 433.53L119.47 433.523C124.458 429.995 128.432 425.217 130.992 419.669C132.295 416.846 133.208 413.874 133.719 410.834L284.97 352.094C289.457 355.474 294.754 357.713 300.403 358.547C309.001 359.816 317.759 357.73 324.862 352.722L324.867 352.718C332.206 347.538 337.186 339.656 338.712 330.804C340.115 322.67 338.495 314.33 334.205 307.337L360.251 255.527C361.909 255.409 363.561 255.172 365.194 254.816C369.752 253.823 374.064 251.925 377.876 249.235C381.617 246.595 384.801 243.244 387.246 239.373C389.692 235.502 391.351 231.187 392.129 226.675C392.907 222.163 392.789 217.542 391.781 213.075C390.773 208.609 388.896 204.384 386.255 200.644L386.249 200.634C383.334 196.514 379.582 193.105 375.276 190.608L375.152 179.428C378.145 176.821 380.548 173.589 382.182 169.948C383.099 167.904 383.759 165.766 384.154 163.581L404.356 151.841C408.074 153.609 412.127 154.646 416.293 154.861C423.352 155.227 430.328 153.213 436.107 149.144L436.112 149.14L436.117 149.137C439.506 146.745 442.39 143.71 444.605 140.204C446.82 136.697 448.323 132.789 449.028 128.702C449.733 124.615 449.626 120.429 448.713 116.383C447.8 112.338 446.099 108.512 443.708 105.123C438.878 98.2802 431.527 93.6364 423.273 92.213C415.019 90.7897 406.538 92.7036 399.695 97.5336L399.682 97.5428L399.668 97.5521C399.516 97.6601 399.365 97.7694 399.215 97.88L379.021 90.7996C378.171 88.4268 377.003 86.167 375.54 84.0844L375.525 84.0635C373.383 81.0288 370.665 78.4457 367.525 76.4616C364.384 74.4776 360.884 73.1315 357.224 72.5002C353.564 71.8689 349.815 71.9646 346.191 72.7821C342.568 73.5996 339.141 75.1227 336.106 77.2646L336.095 77.2729C330.163 81.4708 326.074 87.7908 324.677 94.9222C323.807 99.3604 324.022 103.901 325.25 108.174L292.887 154.653C291.479 154.712 290.074 154.872 288.682 155.134C284.547 155.912 280.626 157.566 277.184 159.987L277.158 160.006L277.132 160.024C276.889 160.197 276.649 160.373 276.412 160.553L262.571 156.668C261.513 152.742 259.771 149.009 257.402 145.648L257.398 145.642C252.066 138.087 243.951 132.96 234.838 131.388C225.726 129.817 216.362 131.93 208.807 137.262C204.175 140.532 200.409 144.882 197.838 149.936C196.626 152.318 195.696 154.822 195.061 157.397L147.853 171.751C146.831 170.913 145.758 170.138 144.637 169.429C141.07 167.176 137.094 165.647 132.936 164.93C128.778 164.212 124.52 164.321 120.404 165.25C116.288 166.179 112.395 167.909 108.948 170.342C107.453 171.397 106.05 172.579 104.756 173.873"
    fill="#E9E9E9" />
  <path
    d="M148.251 197.081L209.19 178.552C209.347 178.812 209.51 179.07 209.678 179.324C212.635 183.5 216.872 186.598 221.747 188.151L219.591 262.822C216.384 263.521 213.33 264.79 210.572 266.57L146.266 205.464C147.505 202.839 148.181 199.983 148.251 197.081Z"
    fill="#66C2A5" />
  <path
    d="M234.772 188.521C237.537 187.819 240.152 186.62 242.489 184.982C245.068 183.151 247.252 180.818 248.91 178.124L276.12 185.761C276.413 188.907 277.524 191.922 279.342 194.507C282.114 198.433 286.332 201.098 291.068 201.915C295.805 202.732 300.672 201.634 304.598 198.862C304.921 198.633 305.235 198.394 305.542 198.145L334.944 215.105C334.106 218.476 334.025 221.99 334.706 225.396L245.896 271.556C242.377 267.539 237.76 264.639 232.614 263.213L234.772 188.521Z"
    fill="#1B9E77" />
  <path
    d="M347.373 119.014L349.409 144.445C348.836 144.749 348.282 145.087 347.75 145.458C344.243 147.933 341.862 151.701 341.133 155.931C340.403 160.162 341.384 164.509 343.859 168.016C345.593 170.465 347.972 172.384 350.733 173.559L351.006 198.221C348.573 198.945 346.272 200.057 344.194 201.515C343.219 202.21 342.299 202.979 341.442 203.814L312.034 186.853C312.741 182.33 311.71 177.706 309.148 173.912L347.373 119.014Z"
    fill="#66C2A5" />
  <path
    d="M360.157 115.443C360.865 115.087 361.547 114.682 362.198 114.231C363.23 113.494 364.176 112.643 365.019 111.694L397.668 123.142C397.652 124.55 397.784 125.955 398.061 127.335L366.605 145.616C365.318 144.68 363.901 143.938 362.398 143.414L360.157 115.443Z"
    fill="#B3E2CD" />
  <path
    d="M129.314 386.422L210.139 312.348C214.739 315.42 220.162 317.025 225.693 316.954C231.223 316.883 236.603 315.138 241.122 311.949C243.344 310.369 245.318 308.466 246.978 306.302L282.991 322.267C282.805 323.764 282.77 325.276 282.885 326.781L129.314 386.422Z"
    fill="#1B9E77" />
  <path
    d="M251.909 283.112L340.72 236.952C341.069 237.317 341.429 237.67 341.801 238.011L309.204 302.851C306.283 302.34 303.289 302.411 300.394 303.06C297.5 303.708 294.762 304.921 292.337 306.63C290.832 307.7 289.465 308.952 288.266 310.355L252.273 294.4C252.937 290.653 252.813 286.809 251.909 283.112Z"
    fill="#0D4E3B" />
</svg>