<svg width="1024" height="768" viewBox="0 0 1024 768" fill="none" xmlns="http://www.w3.org/2000/svg">
  <g clip-path="url(#clip0_2467_2311)">
    <rect width="1024" height="768" fill="#E9E9E9" />
    <mask id="path-1-inside-1_2467_2311" fill="white">
      <path fill-rule="evenodd" clip-rule="evenodd"
        d="M840.993 2.49694C840.993 -4.85415 839.544 -12.0559 836.805 -18.7263C834.023 -25.499 829.91 -31.724 824.633 -37.0017C814.157 -47.4774 799.949 -53.3625 785.134 -53.3625C770.319 -53.3625 756.111 -47.4774 745.635 -37.0017C735.16 -26.526 729.274 -12.3179 729.274 2.49694C729.274 17.3118 735.16 31.5199 745.635 41.9956C754.321 50.6811 765.572 56.211 777.608 57.8473C789.842 72.5564 797.052 89.3293 799.237 108.166C796.648 113.571 795.266 119.537 795.266 125.644C795.266 129.354 795.776 133.011 796.756 136.522C816.098 299.413 807.412 461.53 770.696 622.874C767.3 630.18 765.492 638.205 765.492 646.417C765.492 661.231 771.377 675.439 781.853 685.915C792.329 696.391 806.537 702.276 821.352 702.276C836.166 702.276 850.375 696.391 860.85 685.915C870.962 675.803 876.797 662.213 877.19 647.957C877.204 647.444 877.211 646.931 877.211 646.417C877.211 639.253 875.835 632.232 873.23 625.706C845.463 462.582 845.725 300.231 874.017 138.653C875.427 134.502 876.166 130.111 876.166 125.644C876.166 120.321 875.117 115.106 873.133 110.276C871.118 105.372 868.14 100.864 864.319 97.042C860.057 92.7808 854.943 89.5685 849.378 87.5713C837.691 72.6369 831.03 55.6386 829.393 36.5764C836.874 26.8616 840.993 14.8916 840.993 2.49694Z" />
    </mask>
    <path fill-rule="evenodd" clip-rule="evenodd"
      d="M840.993 2.49694C840.993 -4.85415 839.544 -12.0559 836.805 -18.7263C834.023 -25.499 829.91 -31.724 824.633 -37.0017C814.157 -47.4774 799.949 -53.3625 785.134 -53.3625C770.319 -53.3625 756.111 -47.4774 745.635 -37.0017C735.16 -26.526 729.274 -12.3179 729.274 2.49694C729.274 17.3118 735.16 31.5199 745.635 41.9956C754.321 50.6811 765.572 56.211 777.608 57.8473C789.842 72.5564 797.052 89.3293 799.237 108.166C796.648 113.571 795.266 119.537 795.266 125.644C795.266 129.354 795.776 133.011 796.756 136.522C816.098 299.413 807.412 461.53 770.696 622.874C767.3 630.18 765.492 638.205 765.492 646.417C765.492 661.231 771.377 675.439 781.853 685.915C792.329 696.391 806.537 702.276 821.352 702.276C836.166 702.276 850.375 696.391 860.85 685.915C870.962 675.803 876.797 662.213 877.19 647.957C877.204 647.444 877.211 646.931 877.211 646.417C877.211 639.253 875.835 632.232 873.23 625.706C845.463 462.582 845.725 300.231 874.017 138.653C875.427 134.502 876.166 130.111 876.166 125.644C876.166 120.321 875.117 115.106 873.133 110.276C871.118 105.372 868.14 100.864 864.319 97.042C860.057 92.7808 854.943 89.5685 849.378 87.5713C837.691 72.6369 831.03 55.6386 829.393 36.5764C836.874 26.8616 840.993 14.8916 840.993 2.49694Z"
      fill="white" />
    <path
      d="M836.805 -18.7263L838.655 -19.4862L838.655 -19.4862L836.805 -18.7263ZM824.633 -37.0017L826.047 -38.4159L826.047 -38.4159L824.633 -37.0017ZM745.635 -37.0017L744.221 -38.4159L744.221 -38.4159L745.635 -37.0017ZM745.635 41.9956L747.049 40.5814L747.049 40.5814L745.635 41.9956ZM777.608 57.8473L779.145 56.5684L778.648 55.9704L777.877 55.8656L777.608 57.8473ZM799.237 108.166L801.041 109.03L801.291 108.509L801.224 107.936L799.237 108.166ZM796.756 136.522L798.742 136.286L798.724 136.133L798.682 135.984L796.756 136.522ZM770.696 622.874L772.509 623.717L772.599 623.524L772.646 623.317L770.696 622.874ZM781.853 685.915L780.439 687.329L780.439 687.329L781.853 685.915ZM860.85 685.915L862.264 687.329L862.264 687.329L860.85 685.915ZM877.19 647.957L875.191 647.902L875.191 647.902L877.19 647.957ZM873.23 625.706L871.258 626.041L871.294 626.25L871.372 626.447L873.23 625.706ZM874.017 138.653L872.124 138.01L872.074 138.156L872.047 138.308L874.017 138.653ZM873.133 110.276L871.283 111.036L871.283 111.036L873.133 110.276ZM849.378 87.5713L847.803 88.8038L848.158 89.2587L848.702 89.4537L849.378 87.5713ZM829.393 36.5764L827.809 35.3562L827.334 35.9725L827.401 36.7475L829.393 36.5764ZM834.955 -17.9664C837.596 -11.5347 838.993 -4.59097 838.993 2.49694H842.993C842.993 -5.11733 841.492 -12.577 838.655 -19.4862L834.955 -17.9664ZM823.218 -35.5875C828.307 -30.4987 832.272 -24.4967 834.955 -17.9664L838.655 -19.4862C835.773 -26.5013 831.513 -32.9493 826.047 -38.4159L823.218 -35.5875ZM785.134 -51.3625C799.418 -51.3625 813.118 -45.6881 823.218 -35.5875L826.047 -38.4159C815.196 -49.2667 800.479 -55.3625 785.134 -55.3625V-51.3625ZM747.049 -35.5875C757.15 -45.6881 770.849 -51.3625 785.134 -51.3625V-55.3625C769.789 -55.3625 755.072 -49.2667 744.221 -38.4159L747.049 -35.5875ZM731.274 2.49694C731.274 -11.7875 736.949 -25.4869 747.049 -35.5875L744.221 -38.4159C733.37 -27.5651 727.274 -12.8483 727.274 2.49694H731.274ZM747.049 40.5814C736.949 30.4807 731.274 16.7814 731.274 2.49694H727.274C727.274 17.8422 733.37 32.559 744.221 43.4098L747.049 40.5814ZM777.877 55.8656C766.273 54.2879 755.424 48.9559 747.049 40.5814L744.221 43.4098C753.218 52.4064 764.872 58.1342 777.338 59.8291L777.877 55.8656ZM801.224 107.936C798.994 88.7095 791.626 71.5731 779.145 56.5684L776.07 59.1263C788.059 73.5396 795.111 89.9491 797.251 108.397L801.224 107.936ZM797.266 125.644C797.266 119.839 798.579 114.168 801.041 109.03L797.434 107.302C794.716 112.974 793.266 119.235 793.266 125.644H797.266ZM798.682 135.984C797.751 132.647 797.266 129.171 797.266 125.644H793.266C793.266 129.537 793.801 133.376 794.83 137.06L798.682 135.984ZM772.646 623.317C809.412 461.753 818.112 299.406 798.742 136.286L794.77 136.758C814.085 299.419 805.411 461.307 768.746 622.43L772.646 623.317ZM768.882 622.031C765.365 629.599 763.492 637.911 763.492 646.417H767.492C767.492 638.499 769.235 630.761 772.509 623.717L768.882 622.031ZM763.492 646.417C763.492 661.762 769.588 676.479 780.439 687.329L783.267 684.501C773.167 674.4 767.492 660.701 767.492 646.417H763.492ZM780.439 687.329C791.289 698.18 806.006 704.276 821.352 704.276V700.276C807.067 700.276 793.368 694.602 783.267 684.501L780.439 687.329ZM821.352 704.276C836.697 704.276 851.414 698.18 862.264 687.329L859.436 684.501C849.335 694.602 835.636 700.276 821.352 700.276V704.276ZM862.264 687.329C872.739 676.855 878.783 662.779 879.19 648.012L875.191 647.902C874.812 661.647 869.186 674.751 859.436 684.501L862.264 687.329ZM879.19 648.012C879.204 647.48 879.211 646.948 879.211 646.417H875.211C875.211 646.913 875.205 647.408 875.191 647.902L879.19 648.012ZM879.211 646.417C879.211 638.997 877.786 631.724 875.087 624.964L871.372 626.447C873.884 632.74 875.211 639.51 875.211 646.417H879.211ZM872.047 138.308C843.715 300.113 843.453 462.694 871.258 626.041L875.201 625.37C847.472 462.469 847.735 300.349 875.987 138.998L872.047 138.308ZM874.166 125.644C874.166 129.89 873.464 134.064 872.124 138.01L875.911 139.296C877.391 134.94 878.166 130.332 878.166 125.644H874.166ZM871.283 111.036C873.169 115.627 874.166 120.584 874.166 125.644H878.166C878.166 120.058 877.065 114.585 874.983 109.516L871.283 111.036ZM862.904 98.4562C866.537 102.089 869.368 106.374 871.283 111.036L874.983 109.516C872.869 104.369 869.744 99.6385 865.733 95.6278L862.904 98.4562ZM848.702 89.4537C853.993 91.3523 858.854 94.4057 862.904 98.4562L865.733 95.6278C861.261 91.1559 855.894 87.7847 850.053 85.6888L848.702 89.4537ZM827.401 36.7475C829.07 56.1929 835.875 73.5608 847.803 88.8038L850.953 86.3388C839.508 71.713 832.99 55.0844 831.386 36.4053L827.401 36.7475ZM838.993 2.49694C838.993 14.4478 835.022 25.9892 827.809 35.3562L830.978 37.7966C838.726 27.734 842.993 15.3355 842.993 2.49694H838.993Z"
      fill="#666666" mask="url(#path-1-inside-1_2467_2311)" />
    <mask id="path-3-inside-2_2467_2311" fill="white">
      <path fill-rule="evenodd" clip-rule="evenodd"
        d="M828.521 -13.4612C826.23 -19.6883 822.604 -25.4098 817.822 -30.1916C809.153 -38.8611 797.394 -43.7316 785.134 -43.7316C772.873 -43.7316 761.115 -38.8611 752.445 -30.1916C743.776 -21.522 738.905 -9.76363 738.905 2.49695C738.905 14.7575 743.776 26.5159 752.445 35.1855C757.245 39.9855 762.992 43.6209 769.247 45.9099C774.289 47.7552 779.661 48.7255 785.134 48.7255C793.211 48.7255 801.071 46.6116 807.972 42.6901C837.171 43.7457 863.261 53.2935 886.244 71.3335C888.535 77.5607 892.161 83.2822 896.942 88.064C905.612 96.7335 917.37 101.604 929.631 101.604C941.891 101.604 953.65 96.7335 962.319 88.064C970.989 79.3944 975.859 67.636 975.859 55.3754C975.859 43.1149 970.989 31.3565 962.319 22.6869C957.519 17.8869 951.773 14.2514 945.518 11.9624C940.476 10.1171 935.103 9.1469 929.631 9.1469C921.554 9.1469 913.694 11.2608 906.792 15.1822C877.594 14.1266 851.504 4.57883 828.521 -13.4612Z" />
    </mask>
    <path fill-rule="evenodd" clip-rule="evenodd"
      d="M828.521 -13.4612C826.23 -19.6883 822.604 -25.4098 817.822 -30.1916C809.153 -38.8611 797.394 -43.7316 785.134 -43.7316C772.873 -43.7316 761.115 -38.8611 752.445 -30.1916C743.776 -21.522 738.905 -9.76363 738.905 2.49695C738.905 14.7575 743.776 26.5159 752.445 35.1855C757.245 39.9855 762.992 43.6209 769.247 45.9099C774.289 47.7552 779.661 48.7255 785.134 48.7255C793.211 48.7255 801.071 46.6116 807.972 42.6901C837.171 43.7457 863.261 53.2935 886.244 71.3335C888.535 77.5607 892.161 83.2822 896.942 88.064C905.612 96.7335 917.37 101.604 929.631 101.604C941.891 101.604 953.65 96.7335 962.319 88.064C970.989 79.3944 975.859 67.636 975.859 55.3754C975.859 43.1149 970.989 31.3565 962.319 22.6869C957.519 17.8869 951.773 14.2514 945.518 11.9624C940.476 10.1171 935.103 9.1469 929.631 9.1469C921.554 9.1469 913.694 11.2608 906.792 15.1822C877.594 14.1266 851.504 4.57883 828.521 -13.4612Z"
      fill="white" />
    <path
      d="M817.822 -30.1916L816.408 -28.7773L816.408 -28.7773L817.822 -30.1916ZM828.521 -13.4612L826.644 -12.7707L826.839 -12.2383L827.286 -11.8879L828.521 -13.4612ZM752.445 -30.1916L751.031 -31.6058L751.031 -31.6058L752.445 -30.1916ZM752.445 35.1855L751.031 36.5997L751.031 36.5997L752.445 35.1855ZM769.247 45.9099L769.934 44.0317L769.934 44.0317L769.247 45.9099ZM807.972 42.6901L808.045 40.6914L807.478 40.6709L806.984 40.9512L807.972 42.6901ZM886.244 71.3335L888.121 70.6431L887.925 70.1106L887.479 69.7602L886.244 71.3335ZM896.942 88.064L898.357 86.6498L898.357 86.6498L896.942 88.064ZM962.319 88.064L960.905 86.6498L960.905 86.6498L962.319 88.064ZM962.319 22.6869L963.734 21.2727L963.734 21.2727L962.319 22.6869ZM945.518 11.9624L946.205 10.0842L946.205 10.0842L945.518 11.9624ZM906.792 15.1822L906.72 17.1809L907.287 17.2014L907.78 16.9211L906.792 15.1822ZM816.408 -28.7773C820.983 -24.2025 824.452 -18.7286 826.644 -12.7707L830.398 -14.1516C828.008 -20.648 824.225 -26.6171 819.237 -31.6058L816.408 -28.7773ZM785.134 -41.7316C796.864 -41.7316 808.114 -37.0718 816.408 -28.7773L819.237 -31.6058C810.192 -40.6504 797.925 -45.7316 785.134 -45.7316V-41.7316ZM753.86 -28.7773C762.154 -37.0718 773.404 -41.7316 785.134 -41.7316V-45.7316C772.343 -45.7316 760.076 -40.6504 751.031 -31.6058L753.86 -28.7773ZM740.905 2.49695C740.905 -9.23318 745.565 -20.4829 753.86 -28.7773L751.031 -31.6058C741.987 -22.5612 736.905 -10.2941 736.905 2.49695H740.905ZM753.86 33.7713C745.565 25.4768 740.905 14.2271 740.905 2.49695H736.905C736.905 15.288 741.987 27.5551 751.031 36.5997L753.86 33.7713ZM769.934 44.0317C763.95 41.8417 758.452 38.3636 753.86 33.7713L751.031 36.5997C756.039 41.6073 762.034 45.4001 768.56 47.7881L769.934 44.0317ZM785.134 46.7255C779.898 46.7255 774.758 45.7972 769.934 44.0317L768.56 47.7881C773.82 49.7132 779.425 50.7255 785.134 50.7255V46.7255ZM806.984 40.9512C800.381 44.7031 792.862 46.7255 785.134 46.7255V50.7255C793.561 50.7255 801.76 48.5201 808.96 44.429L806.984 40.9512ZM887.479 69.7602C864.163 51.4591 837.666 41.7623 808.045 40.6914L807.9 44.6888C836.676 45.7291 862.359 55.128 885.009 72.9067L887.479 69.7602ZM898.357 86.6498C893.782 82.0748 890.313 76.6009 888.121 70.6431L884.367 72.0239C886.757 78.5204 890.54 84.4895 895.528 89.4782L898.357 86.6498ZM929.631 99.604C917.901 99.604 906.651 94.9442 898.357 86.6498L895.528 89.4782C904.573 98.5228 916.84 103.604 929.631 103.604V99.604ZM960.905 86.6498C952.611 94.9442 941.361 99.604 929.631 99.604V103.604C942.422 103.604 954.689 98.5228 963.734 89.4782L960.905 86.6498ZM973.859 55.3754C973.859 67.1056 969.2 78.3553 960.905 86.6498L963.734 89.4782C972.778 80.4336 977.859 68.1664 977.859 55.3754H973.859ZM960.905 24.1011C969.2 32.3956 973.859 43.6453 973.859 55.3754H977.859C977.859 42.5844 972.778 30.3173 963.734 21.2727L960.905 24.1011ZM944.83 13.8406C950.815 16.0306 956.313 19.5088 960.905 24.1011L963.734 21.2727C958.726 16.265 952.73 12.4722 946.205 10.0842L944.83 13.8406ZM929.631 11.1469C934.866 11.1469 940.006 12.0751 944.83 13.8406L946.205 10.0842C940.945 8.15914 935.34 7.1469 929.631 7.1469V11.1469ZM907.78 16.9211C914.384 13.1693 921.903 11.1469 929.631 11.1469V7.1469C921.204 7.1469 913.005 9.35231 905.804 13.4433L907.78 16.9211ZM827.286 -11.8879C850.601 6.41328 877.099 16.11 906.72 17.1809L906.865 13.1835C878.089 12.1432 852.406 2.74438 829.756 -15.0344L827.286 -11.8879Z"
      fill="#666666" mask="url(#path-3-inside-2_2467_2311)" />
    <mask id="path-5-inside-3_2467_2311" fill="white">
      <path fill-rule="evenodd" clip-rule="evenodd"
        d="M164.836 -42.7278C164.836 -56.0101 159.56 -68.7484 150.168 -78.1404C140.776 -87.5323 128.038 -92.8087 114.755 -92.8087C101.473 -92.8087 88.7348 -87.5323 79.3428 -78.1404C69.9508 -68.7484 64.6745 -56.0101 64.6745 -42.7278C64.6745 -29.8635 69.624 -17.5094 78.4685 -8.21171C114.891 67.2224 128.418 147.251 119.049 231.873C113.663 241.537 110.763 252.498 110.763 263.758C110.763 270.415 111.776 276.967 113.718 283.208C101.366 336.59 75.4556 381.078 35.987 416.672C31.1038 418.686 26.6154 421.656 22.8078 425.464C20.8384 427.433 19.0931 429.585 17.5882 431.879C13.2964 438.421 10.9603 446.123 10.9603 454.066C10.9603 454.447 10.9657 454.827 10.9764 455.207C-6.52239 498.864 -34.8364 533.742 -73.9657 559.84C-82.021 561.295 -89.5068 565.174 -95.3751 571.043C-102.961 578.628 -107.223 588.917 -107.223 599.645C-107.223 610.373 -102.961 620.662 -95.3751 628.248C-87.7893 635.833 -77.5007 640.095 -66.7727 640.095C-56.0447 640.095 -45.7561 635.833 -38.1702 628.248C-30.5844 620.662 -26.3227 610.373 -26.3227 599.645C-26.3227 599.264 -26.3281 598.884 -26.3388 598.504C-8.84002 554.847 19.474 519.969 58.6032 493.872C66.6586 492.416 74.1444 488.537 80.0127 482.669C87.5986 475.083 91.8603 464.794 91.8603 454.066C91.8603 453.817 91.858 453.568 91.8534 453.32C108.783 402.941 139.272 361.457 183.318 328.867C198.089 327.264 211.957 320.672 222.562 310.067C234.844 297.785 241.744 281.127 241.744 263.758C241.744 246.389 234.844 229.731 222.562 217.45C220.713 215.6 218.764 213.873 216.729 212.273C175.44 137.816 157.047 58.764 161.549 -24.8817C163.702 -30.5272 164.836 -36.569 164.836 -42.7278Z" />
    </mask>
    <path fill-rule="evenodd" clip-rule="evenodd"
      d="M164.836 -42.7278C164.836 -56.0101 159.56 -68.7484 150.168 -78.1404C140.776 -87.5323 128.038 -92.8087 114.755 -92.8087C101.473 -92.8087 88.7348 -87.5323 79.3428 -78.1404C69.9508 -68.7484 64.6745 -56.0101 64.6745 -42.7278C64.6745 -29.8635 69.624 -17.5094 78.4685 -8.21171C114.891 67.2224 128.418 147.251 119.049 231.873C113.663 241.537 110.763 252.498 110.763 263.758C110.763 270.415 111.776 276.967 113.718 283.208C101.366 336.59 75.4556 381.078 35.987 416.672C31.1038 418.686 26.6154 421.656 22.8078 425.464C20.8384 427.433 19.0931 429.585 17.5882 431.879C13.2964 438.421 10.9603 446.123 10.9603 454.066C10.9603 454.447 10.9657 454.827 10.9764 455.207C-6.52239 498.864 -34.8364 533.742 -73.9657 559.84C-82.021 561.295 -89.5068 565.174 -95.3751 571.043C-102.961 578.628 -107.223 588.917 -107.223 599.645C-107.223 610.373 -102.961 620.662 -95.3751 628.248C-87.7893 635.833 -77.5007 640.095 -66.7727 640.095C-56.0447 640.095 -45.7561 635.833 -38.1702 628.248C-30.5844 620.662 -26.3227 610.373 -26.3227 599.645C-26.3227 599.264 -26.3281 598.884 -26.3388 598.504C-8.84002 554.847 19.474 519.969 58.6032 493.872C66.6586 492.416 74.1444 488.537 80.0127 482.669C87.5986 475.083 91.8603 464.794 91.8603 454.066C91.8603 453.817 91.858 453.568 91.8534 453.32C108.783 402.941 139.272 361.457 183.318 328.867C198.089 327.264 211.957 320.672 222.562 310.067C234.844 297.785 241.744 281.127 241.744 263.758C241.744 246.389 234.844 229.731 222.562 217.45C220.713 215.6 218.764 213.873 216.729 212.273C175.44 137.816 157.047 58.764 161.549 -24.8817C163.702 -30.5272 164.836 -36.569 164.836 -42.7278Z"
      fill="white" />
    <path
      d="M150.168 -78.1404L148.754 -76.7261L148.754 -76.7261L150.168 -78.1404ZM79.3428 -78.1404L80.757 -76.7261L80.757 -76.7261L79.3428 -78.1404ZM78.4685 -8.21171L80.2695 -9.08132L80.1334 -9.36329L79.9175 -9.59016L78.4685 -8.21171ZM119.049 231.873L120.796 232.847L120.992 232.494L121.037 232.093L119.049 231.873ZM113.718 283.208L115.666 283.659L115.788 283.131L115.627 282.614L113.718 283.208ZM35.987 416.672L36.7496 418.521L37.0694 418.389L37.3264 418.157L35.987 416.672ZM22.8078 425.464L21.3936 424.049L21.3936 424.049L22.8078 425.464ZM17.5882 431.879L19.2605 432.976L19.2605 432.976L17.5882 431.879ZM10.9764 455.207L12.8328 455.951L12.9873 455.565L12.9756 455.15L10.9764 455.207ZM-73.9657 559.84L-73.61 561.808L-73.2014 561.734L-72.8559 561.504L-73.9657 559.84ZM-95.3751 571.043L-93.9609 572.457L-93.9609 572.457L-95.3751 571.043ZM-95.3751 628.248L-93.9609 626.833L-93.9609 626.833L-95.3751 628.248ZM-38.1702 628.248L-39.5844 626.833L-39.5844 626.833L-38.1702 628.248ZM-26.3388 598.504L-28.1952 597.76L-28.3497 598.146L-28.338 598.561L-26.3388 598.504ZM58.6032 493.872L58.2475 491.904L57.8389 491.977L57.4935 492.208L58.6032 493.872ZM80.0127 482.669L81.4269 484.083L81.4269 484.083L80.0127 482.669ZM91.8534 453.32L89.9576 452.683L89.8473 453.011L89.8537 453.357L91.8534 453.32ZM183.318 328.867L183.103 326.878L182.564 326.937L182.129 327.259L183.318 328.867ZM222.562 217.45L223.976 216.035L223.976 216.035L222.562 217.45ZM216.729 212.273L214.98 213.243L215.176 213.596L215.493 213.845L216.729 212.273ZM161.549 -24.8817L159.68 -25.5944L159.568 -25.3018L159.552 -24.9892L161.549 -24.8817ZM148.754 -76.7261C157.771 -67.7092 162.836 -55.4796 162.836 -42.7278H166.836C166.836 -56.5405 161.349 -69.7875 151.582 -79.5546L148.754 -76.7261ZM114.755 -90.8087C127.507 -90.8087 139.737 -85.7431 148.754 -76.7261L151.582 -79.5546C141.815 -89.3216 128.568 -94.8087 114.755 -94.8087V-90.8087ZM80.757 -76.7261C89.774 -85.7431 102.004 -90.8087 114.755 -90.8087V-94.8087C100.943 -94.8087 87.6957 -89.3216 77.9286 -79.5546L80.757 -76.7261ZM66.6745 -42.7278C66.6745 -55.4796 71.7401 -67.7092 80.757 -76.7261L77.9286 -79.5546C68.1615 -69.7875 62.6745 -56.5405 62.6745 -42.7278H66.6745ZM79.9175 -9.59016C71.4263 -18.5165 66.6745 -30.3772 66.6745 -42.7278H62.6745C62.6745 -29.3497 67.8216 -16.5024 77.0194 -6.83326L79.9175 -9.59016ZM121.037 232.093C130.446 147.104 116.858 66.6971 80.2695 -9.08132L76.6674 -7.3421C112.923 67.7478 126.389 147.398 117.061 231.653L121.037 232.093ZM112.763 263.758C112.763 252.842 115.574 242.216 120.796 232.847L117.302 230.899C111.751 240.858 108.763 252.154 108.763 263.758H112.763ZM115.627 282.614C113.745 276.563 112.763 270.212 112.763 263.758H108.763C108.763 270.618 109.807 277.37 111.808 283.802L115.627 282.614ZM37.3264 418.157C77.109 382.28 103.225 337.427 115.666 283.659L111.769 282.757C99.5066 335.754 73.8021 379.876 34.6475 415.187L37.3264 418.157ZM24.222 426.878C27.8413 423.259 32.1078 420.435 36.7496 418.521L35.2244 414.823C30.0999 416.937 25.3894 420.054 21.3936 424.049L24.222 426.878ZM19.2605 432.976C20.6909 430.795 22.3499 428.75 24.2221 426.878L21.3936 424.049C19.3269 426.116 17.4952 428.374 15.9159 430.782L19.2605 432.976ZM12.9603 454.066C12.9603 446.516 15.1808 439.195 19.2605 432.976L15.9159 430.782C11.412 437.648 8.96031 445.73 8.96031 454.066H12.9603ZM12.9756 455.15C12.9654 454.79 12.9603 454.428 12.9603 454.066H8.96031C8.96031 454.466 8.96594 454.865 8.97717 455.263L12.9756 455.15ZM-72.8559 561.504C-33.3906 535.182 -4.81625 499.983 12.8328 455.951L9.11995 454.463C-8.22852 497.745 -36.2822 532.302 -75.0754 558.176L-72.8559 561.504ZM-93.9609 572.457C-88.3828 566.879 -81.2672 563.192 -73.61 561.808L-74.3213 557.872C-82.7749 559.399 -90.6308 563.47 -96.7894 569.628L-93.9609 572.457ZM-105.223 599.645C-105.223 589.448 -101.172 579.668 -93.9609 572.457L-96.7893 569.628C-104.75 577.589 -109.223 588.387 -109.223 599.645H-105.223ZM-93.9609 626.833C-101.172 619.623 -105.223 609.843 -105.223 599.645H-109.223C-109.223 610.904 -104.75 621.701 -96.7893 629.662L-93.9609 626.833ZM-66.7727 638.095C-76.9702 638.095 -86.7502 634.044 -93.9609 626.833L-96.7894 629.662C-88.8284 637.623 -78.0311 642.095 -66.7727 642.095V638.095ZM-39.5844 626.833C-46.7952 634.044 -56.5751 638.095 -66.7727 638.095V642.095C-55.5142 642.095 -44.7169 637.623 -36.756 629.662L-39.5844 626.833ZM-28.3227 599.645C-28.3227 609.843 -32.3737 619.623 -39.5844 626.833L-36.756 629.662C-28.7951 621.701 -24.3227 610.904 -24.3227 599.645H-28.3227ZM-28.338 598.561C-28.3278 598.922 -28.3227 599.283 -28.3227 599.645H-24.3227C-24.3227 599.245 -24.3283 598.846 -24.3396 598.448L-28.338 598.561ZM57.4935 492.208C18.0281 518.53 -10.5462 553.728 -28.1952 597.76L-24.4823 599.249C-7.13389 555.966 20.9198 521.409 59.7129 495.536L57.4935 492.208ZM78.5985 481.254C73.0204 486.833 65.9047 490.52 58.2475 491.904L58.9589 495.84C67.4125 494.312 75.2684 490.241 81.4269 484.083L78.5985 481.254ZM89.8603 454.066C89.8603 464.264 85.8093 474.044 78.5985 481.254L81.4269 484.083C89.3878 476.122 93.8603 465.325 93.8603 454.066H89.8603ZM89.8537 453.357C89.8581 453.593 89.8603 453.829 89.8603 454.066H93.8603C93.8603 453.805 93.8578 453.544 93.853 453.283L89.8537 453.357ZM182.129 327.259C137.764 360.085 107.022 401.903 89.9576 452.683L93.7492 453.957C110.545 403.979 140.78 362.829 184.508 330.475L182.129 327.259ZM221.148 308.653C210.867 318.934 197.423 325.325 183.103 326.878L183.534 330.855C198.756 329.204 213.047 322.41 223.976 311.481L221.148 308.653ZM239.744 263.758C239.744 280.597 233.055 296.746 221.148 308.653L223.976 311.481C236.633 298.824 243.744 281.658 243.744 263.758H239.744ZM221.148 218.864C233.055 230.771 239.744 246.92 239.744 263.758H243.744C243.744 245.859 236.633 228.692 223.976 216.035L221.148 218.864ZM215.493 213.845C217.466 215.396 219.355 217.071 221.148 218.864L223.976 216.035C222.071 214.13 220.063 212.35 217.965 210.701L215.493 213.845ZM159.552 -24.9892C155.029 59.0382 173.512 138.462 214.98 213.243L218.478 211.303C177.369 137.169 159.064 58.4897 163.546 -24.7742L159.552 -24.9892ZM162.836 -42.7278C162.836 -36.8149 161.747 -31.0145 159.68 -25.5944L163.417 -24.169C165.657 -30.0399 166.836 -36.3231 166.836 -42.7278H162.836Z"
      fill="#666666" mask="url(#path-5-inside-3_2467_2311)" />
    <mask id="path-7-inside-4_2467_2311" fill="white">
      <path fill-rule="evenodd" clip-rule="evenodd"
        d="M312.529 -73.7119C320.114 -66.1261 324.376 -55.8375 324.376 -45.1095C324.376 -34.3815 320.114 -24.0929 312.529 -16.507C305.077 -9.05551 295.017 -4.81136 284.495 -4.66339C284.306 -4.66072 284.116 -4.6595 283.926 -4.6595C273.732 -4.6595 263.934 -8.50789 256.475 -15.4001C218.193 -27.0837 180.084 -26.4517 142.149 -13.5041C141.018 -12.4214 139.83 -11.4104 138.592 -10.4741C89.2373 49.8015 55.9558 117.661 38.7473 193.105C71.063 211.476 106.428 219.63 144.841 217.567C154.04 211.312 164.971 207.899 176.253 207.899C191.068 207.899 205.276 213.784 215.752 224.26C226.228 234.735 232.113 248.943 232.113 263.758C232.113 278.573 226.228 292.781 215.752 303.257C205.276 313.733 191.068 319.618 176.253 319.618C161.438 319.618 147.23 313.733 136.755 303.257C131.528 298.031 127.445 291.875 124.664 285.179C90.5731 260.13 52.7948 247.436 11.3291 247.098C6.39287 249.185 1.04382 250.29 -4.41916 250.29C-15.1472 250.29 -25.4358 246.028 -33.0216 238.442C-40.6075 230.857 -44.8691 220.568 -44.8691 209.84C-44.8691 199.112 -40.6075 188.823 -33.0216 181.237C-31.2883 179.504 -29.4138 177.944 -27.4252 176.569C23.959 113.495 57.7927 42.1402 74.076 -37.4961C73.8506 -39.2228 73.7359 -40.9713 73.7359 -42.7317C73.7359 -53.4597 77.9976 -63.7483 85.5834 -71.3342C93.1692 -78.92 103.458 -83.1817 114.186 -83.1817C124.253 -83.1817 133.933 -79.4291 141.355 -72.6986C179.627 -60.8368 217.725 -61.2819 255.649 -74.034C263.203 -81.4183 273.351 -85.5594 283.926 -85.5594C294.654 -85.5594 304.943 -81.2978 312.529 -73.7119Z" />
    </mask>
    <path fill-rule="evenodd" clip-rule="evenodd"
      d="M312.529 -73.7119C320.114 -66.1261 324.376 -55.8375 324.376 -45.1095C324.376 -34.3815 320.114 -24.0929 312.529 -16.507C305.077 -9.05551 295.017 -4.81136 284.495 -4.66339C284.306 -4.66072 284.116 -4.6595 283.926 -4.6595C273.732 -4.6595 263.934 -8.50789 256.475 -15.4001C218.193 -27.0837 180.084 -26.4517 142.149 -13.5041C141.018 -12.4214 139.83 -11.4104 138.592 -10.4741C89.2373 49.8015 55.9558 117.661 38.7473 193.105C71.063 211.476 106.428 219.63 144.841 217.567C154.04 211.312 164.971 207.899 176.253 207.899C191.068 207.899 205.276 213.784 215.752 224.26C226.228 234.735 232.113 248.943 232.113 263.758C232.113 278.573 226.228 292.781 215.752 303.257C205.276 313.733 191.068 319.618 176.253 319.618C161.438 319.618 147.23 313.733 136.755 303.257C131.528 298.031 127.445 291.875 124.664 285.179C90.5731 260.13 52.7948 247.436 11.3291 247.098C6.39287 249.185 1.04382 250.29 -4.41916 250.29C-15.1472 250.29 -25.4358 246.028 -33.0216 238.442C-40.6075 230.857 -44.8691 220.568 -44.8691 209.84C-44.8691 199.112 -40.6075 188.823 -33.0216 181.237C-31.2883 179.504 -29.4138 177.944 -27.4252 176.569C23.959 113.495 57.7927 42.1402 74.076 -37.4961C73.8506 -39.2228 73.7359 -40.9713 73.7359 -42.7317C73.7359 -53.4597 77.9976 -63.7483 85.5834 -71.3342C93.1692 -78.92 103.458 -83.1817 114.186 -83.1817C124.253 -83.1817 133.933 -79.4291 141.355 -72.6986C179.627 -60.8368 217.725 -61.2819 255.649 -74.034C263.203 -81.4183 273.351 -85.5594 283.926 -85.5594C294.654 -85.5594 304.943 -81.2978 312.529 -73.7119Z"
      fill="white" />
    <path
      d="M312.529 -73.7119L313.943 -75.1261L313.943 -75.1261L312.529 -73.7119ZM312.529 -16.507L311.114 -17.9212L311.114 -17.9212L312.529 -16.507ZM284.495 -4.66339L284.523 -2.66358L284.524 -2.66358L284.495 -4.66339ZM256.475 -15.4001L257.832 -16.869L257.496 -17.1795L257.059 -17.313L256.475 -15.4001ZM142.149 -13.5041L141.503 -15.3969L141.085 -15.2543L140.767 -14.9492L142.149 -13.5041ZM138.592 -10.4741L137.385 -12.069L137.195 -11.9254L137.045 -11.7412L138.592 -10.4741ZM38.7473 193.105L36.7974 192.66L36.4669 194.109L37.7589 194.844L38.7473 193.105ZM144.841 217.567L144.949 219.564L145.505 219.535L145.966 219.221L144.841 217.567ZM215.752 303.257L214.338 301.843L214.338 301.843L215.752 303.257ZM136.755 303.257L138.169 301.843L138.169 301.843L136.755 303.257ZM124.664 285.179L126.511 284.412L126.298 283.897L125.848 283.567L124.664 285.179ZM11.3291 247.098L11.3454 245.098L10.9316 245.095L10.5505 245.256L11.3291 247.098ZM-33.0216 238.442L-31.6074 237.028L-31.6074 237.028L-33.0216 238.442ZM-33.0216 181.237L-31.6074 182.652L-31.6074 182.652L-33.0216 181.237ZM-27.4252 176.569L-26.2877 178.214L-26.054 178.053L-25.8746 177.832L-27.4252 176.569ZM74.076 -37.4961L76.0354 -37.0954L76.1025 -37.4232L76.0592 -37.7549L74.076 -37.4961ZM85.5834 -71.3342L84.1692 -72.7484L84.1692 -72.7484L85.5834 -71.3342ZM141.355 -72.6986L140.012 -71.217L140.34 -70.9194L140.763 -70.7883L141.355 -72.6986ZM255.649 -74.034L256.287 -72.1383L256.72 -72.2841L257.048 -72.6039L255.649 -74.034ZM326.376 -45.1095C326.376 -56.3679 321.904 -67.1652 313.943 -75.1261L311.114 -72.2977C318.325 -65.0869 322.376 -55.307 322.376 -45.1095H326.376ZM313.943 -15.0928C321.904 -23.0537 326.376 -33.851 326.376 -45.1095H322.376C322.376 -34.9119 318.325 -25.132 311.114 -17.9212L313.943 -15.0928ZM284.524 -2.66358C295.566 -2.81887 306.123 -7.27286 313.943 -15.0928L311.114 -17.9212C304.031 -10.8382 294.469 -6.80384 284.467 -6.66319L284.524 -2.66358ZM284.467 -6.66319C284.288 -6.66067 284.107 -6.6595 283.926 -6.6595V-2.6595C284.125 -2.6595 284.324 -2.66078 284.523 -2.66358L284.467 -6.66319ZM255.118 -13.9312C262.945 -6.69817 273.228 -2.6595 283.926 -2.6595V-6.6595C274.236 -6.6595 264.922 -10.3176 257.832 -16.869L255.118 -13.9312ZM257.059 -17.313C218.374 -29.1194 179.835 -28.48 141.503 -15.3969L142.795 -11.6113C180.333 -24.4234 218.012 -25.0479 255.891 -13.4872L257.059 -17.313ZM140.767 -14.9492C139.691 -13.92 138.562 -12.959 137.385 -12.069L139.799 -8.8792C141.098 -9.86186 142.344 -10.9228 143.532 -12.059L140.767 -14.9492ZM137.045 -11.7412C87.4954 48.7721 54.0751 116.913 36.7974 192.66L40.6973 193.55C57.8365 118.41 90.9793 50.831 140.139 -9.20705L137.045 -11.7412ZM37.7589 194.844C70.4196 213.411 106.167 221.647 144.949 219.564L144.734 215.57C106.689 217.613 71.7064 209.541 39.7358 191.367L37.7589 194.844ZM145.966 219.221C154.835 213.19 165.375 209.899 176.253 209.899V205.899C164.566 205.899 153.244 209.435 143.717 215.913L145.966 219.221ZM176.253 209.899C190.538 209.899 204.237 215.573 214.338 225.674L217.166 222.845C206.315 211.995 191.599 205.899 176.253 205.899V209.899ZM214.338 225.674C224.438 235.774 230.113 249.474 230.113 263.758H234.113C234.113 248.413 228.017 233.696 217.166 222.845L214.338 225.674ZM230.113 263.758C230.113 278.043 224.438 291.742 214.338 301.843L217.166 304.671C228.017 293.82 234.113 279.104 234.113 263.758H230.113ZM214.338 301.843C204.237 311.943 190.538 317.618 176.253 317.618V321.618C191.599 321.618 206.315 315.522 217.166 304.671L214.338 301.843ZM176.253 317.618C161.969 317.618 148.269 311.943 138.169 301.843L135.34 304.671C146.191 315.522 160.908 321.618 176.253 321.618V317.618ZM138.169 301.843C133.13 296.803 129.192 290.869 126.511 284.412L122.817 285.946C125.697 292.882 129.927 299.258 135.34 304.671L138.169 301.843ZM125.848 283.567C91.4259 258.275 53.2405 245.44 11.3454 245.098L11.3128 249.098C52.349 249.433 89.7204 261.985 123.48 286.791L125.848 283.567ZM10.5505 245.256C5.8582 247.239 0.773722 248.29 -4.41916 248.29V252.29C1.31392 252.29 6.92755 251.13 12.1077 248.941L10.5505 245.256ZM-4.41916 248.29C-14.6167 248.29 -24.3966 244.239 -31.6074 237.028L-34.4358 239.857C-26.4749 247.817 -15.6776 252.29 -4.41916 252.29V248.29ZM-31.6074 237.028C-38.8182 229.817 -42.8691 220.037 -42.8691 209.84H-46.8691C-46.8691 221.098 -42.3967 231.896 -34.4358 239.857L-31.6074 237.028ZM-42.8691 209.84C-42.8691 199.642 -38.8182 189.862 -31.6074 182.652L-34.4358 179.823C-42.3967 187.784 -46.8691 198.581 -46.8691 209.84H-42.8691ZM-31.6074 182.652C-29.9597 181.004 -28.1779 179.521 -26.2877 178.214L-28.5627 174.924C-30.6497 176.367 -32.6168 178.004 -34.4358 179.823L-31.6074 182.652ZM-25.8746 177.832C25.7133 114.508 59.6874 42.8574 76.0354 -37.0954L72.1165 -37.8968C55.898 41.4229 22.2046 112.482 -28.9758 175.306L-25.8746 177.832ZM76.0592 -37.7549C75.845 -39.3962 75.7359 -41.0583 75.7359 -42.7317H71.7359C71.7359 -40.8844 71.8563 -39.0494 72.0928 -37.2373L76.0592 -37.7549ZM75.7359 -42.7317C75.7359 -52.9293 79.7868 -62.7092 86.9976 -69.92L84.1692 -72.7484C76.2083 -64.7875 71.7359 -53.9901 71.7359 -42.7317H75.7359ZM86.9976 -69.92C94.2084 -77.1307 103.988 -81.1817 114.186 -81.1817V-85.1817C102.927 -85.1817 92.1301 -80.7093 84.1692 -72.7484L86.9976 -69.92ZM114.186 -81.1817C123.755 -81.1817 132.956 -77.6147 140.012 -71.217L142.699 -74.1803C134.909 -81.2436 124.75 -85.1817 114.186 -85.1817V-81.1817ZM140.763 -70.7883C179.435 -58.8023 217.963 -59.2521 256.287 -72.1383L255.012 -75.9297C217.486 -63.3117 179.818 -62.8713 141.948 -74.609L140.763 -70.7883ZM283.926 -87.5594C272.828 -87.5594 262.178 -83.2135 254.251 -75.4641L257.048 -72.6039C264.227 -79.623 273.874 -83.5594 283.926 -83.5594V-87.5594ZM313.943 -75.1261C305.982 -83.0871 295.185 -87.5594 283.926 -87.5594V-83.5594C294.124 -83.5594 303.904 -79.5085 311.114 -72.2977L313.943 -75.1261Z"
      fill="#666666" mask="url(#path-7-inside-4_2467_2311)" />
    <mask id="path-9-inside-5_2467_2311" fill="white">
      <path fill-rule="evenodd" clip-rule="evenodd"
        d="M219.27 246.827C216.968 240.977 213.474 235.601 208.942 231.07C200.273 222.4 188.515 217.53 176.254 217.53C163.993 217.53 152.235 222.4 143.565 231.07C134.896 239.739 130.025 251.498 130.025 263.758C130.025 276.019 134.896 287.777 143.565 296.447C145.57 298.452 147.741 300.254 150.044 301.839C196.088 363.405 223.246 432.404 231.518 508.837C230.796 512.095 230.424 515.446 230.424 518.836C230.424 531.097 235.294 542.855 243.964 551.525C252.633 560.194 264.392 565.065 276.652 565.065C278.032 565.065 279.406 565.003 280.769 564.881C459.237 578.227 631.386 618.548 797.216 685.844C804.423 690.255 812.764 692.645 821.353 692.645C833.613 692.645 845.371 687.775 854.041 679.105C862.71 670.435 867.581 658.677 867.581 646.416C867.581 634.156 862.71 622.398 854.041 613.728C845.371 605.058 833.613 600.188 821.353 600.188C819.973 600.188 818.599 600.25 817.236 600.371C639.318 587.066 467.68 546.952 302.321 480.029C256.606 418.647 229.628 349.889 221.389 273.756C222.11 270.498 222.483 267.148 222.483 263.758C222.483 257.907 221.373 252.169 219.271 246.828C219.271 246.828 219.271 246.827 219.271 246.827L219.27 246.827Z" />
    </mask>
    <path fill-rule="evenodd" clip-rule="evenodd"
      d="M219.27 246.827C216.968 240.977 213.474 235.601 208.942 231.07C200.273 222.4 188.515 217.53 176.254 217.53C163.993 217.53 152.235 222.4 143.565 231.07C134.896 239.739 130.025 251.498 130.025 263.758C130.025 276.019 134.896 287.777 143.565 296.447C145.57 298.452 147.741 300.254 150.044 301.839C196.088 363.405 223.246 432.404 231.518 508.837C230.796 512.095 230.424 515.446 230.424 518.836C230.424 531.097 235.294 542.855 243.964 551.525C252.633 560.194 264.392 565.065 276.652 565.065C278.032 565.065 279.406 565.003 280.769 564.881C459.237 578.227 631.386 618.548 797.216 685.844C804.423 690.255 812.764 692.645 821.353 692.645C833.613 692.645 845.371 687.775 854.041 679.105C862.71 670.435 867.581 658.677 867.581 646.416C867.581 634.156 862.71 622.398 854.041 613.728C845.371 605.058 833.613 600.188 821.353 600.188C819.973 600.188 818.599 600.25 817.236 600.371C639.318 587.066 467.68 546.952 302.321 480.029C256.606 418.647 229.628 349.889 221.389 273.756C222.11 270.498 222.483 267.148 222.483 263.758C222.483 257.907 221.373 252.169 219.271 246.828C219.271 246.828 219.271 246.827 219.271 246.827L219.27 246.827Z"
      fill="white" />
    <path
      d="M208.942 231.07L207.528 232.484L207.528 232.484L208.942 231.07ZM219.27 246.827L217.409 247.56L218.144 249.426L220.008 248.686L219.27 246.827ZM143.565 231.07L142.151 229.656L142.151 229.656L143.565 231.07ZM143.565 296.447L144.98 295.033L144.98 295.033L143.565 296.447ZM150.044 301.839L151.646 300.641L151.449 300.378L151.178 300.191L150.044 301.839ZM231.518 508.837L233.471 509.269L233.542 508.948L233.506 508.621L231.518 508.837ZM243.964 551.525L245.378 550.11L245.378 550.11L243.964 551.525ZM280.769 564.881L280.919 562.887L280.755 562.874L280.591 562.889L280.769 564.881ZM797.216 685.844L798.261 684.138L798.121 684.053L797.968 683.991L797.216 685.844ZM854.041 679.105L855.455 680.519L855.455 680.519L854.041 679.105ZM854.041 613.728L855.455 612.314L855.455 612.314L854.041 613.728ZM817.236 600.371L817.087 602.366L817.25 602.378L817.414 602.364L817.236 600.371ZM302.321 480.029L300.717 481.224L301.052 481.673L301.571 481.883L302.321 480.029ZM221.389 273.756L219.436 273.324L219.365 273.645L219.4 273.971L221.389 273.756ZM219.271 246.828L217.273 246.93L217.29 247.256L217.41 247.56L219.271 246.828ZM219.271 246.827L221.268 246.725L221.126 243.938L218.533 244.968L219.271 246.827ZM207.528 232.484C211.864 236.82 215.206 241.962 217.409 247.56L221.131 246.095C218.729 239.991 215.084 234.383 210.357 229.656L207.528 232.484ZM176.254 219.53C187.984 219.53 199.234 224.189 207.528 232.484L210.357 229.656C201.312 220.611 189.045 215.53 176.254 215.53V219.53ZM144.98 232.484C153.274 224.189 164.524 219.53 176.254 219.53V215.53C163.463 215.53 151.196 220.611 142.151 229.656L144.98 232.484ZM132.025 263.758C132.025 252.028 136.685 240.778 144.98 232.484L142.151 229.656C133.107 238.7 128.025 250.967 128.025 263.758H132.025ZM144.98 295.033C136.685 286.738 132.025 275.488 132.025 263.758H128.025C128.025 276.549 133.107 288.816 142.151 297.861L144.98 295.033ZM151.178 300.191C148.974 298.675 146.898 296.951 144.98 295.033L142.151 297.861C144.243 299.953 146.507 301.832 148.91 303.486L151.178 300.191ZM233.506 508.621C225.195 431.833 197.904 362.494 151.646 300.641L148.442 303.037C194.271 364.316 221.296 432.976 229.53 509.052L233.506 508.621ZM232.424 518.836C232.424 515.593 232.78 512.387 233.471 509.269L229.565 508.404C228.812 511.803 228.424 515.3 228.424 518.836H232.424ZM245.378 550.11C237.084 541.816 232.424 530.566 232.424 518.836H228.424C228.424 531.627 233.505 543.894 242.55 552.939L245.378 550.11ZM276.652 563.065C264.922 563.065 253.673 558.405 245.378 550.11L242.55 552.939C251.594 561.983 263.861 567.065 276.652 567.065V563.065ZM280.591 562.889C279.287 563.006 277.973 563.065 276.652 563.065V567.065C278.092 567.065 279.525 567 280.948 566.873L280.591 562.889ZM797.968 683.991C631.945 616.617 459.593 576.248 280.919 562.887L280.62 566.876C458.88 580.206 630.826 620.48 796.464 687.697L797.968 683.991ZM821.353 690.645C813.136 690.645 805.155 688.359 798.261 684.138L796.172 687.55C803.69 692.152 812.393 694.645 821.353 694.645V690.645ZM852.627 677.691C844.332 685.985 833.083 690.645 821.353 690.645V694.645C834.144 694.645 846.411 689.564 855.455 680.519L852.627 677.691ZM865.581 646.416C865.581 658.147 860.921 669.396 852.627 677.691L855.455 680.519C864.5 671.475 869.581 659.207 869.581 646.416H865.581ZM852.627 615.142C860.921 623.437 865.581 634.686 865.581 646.416H869.581C869.581 633.625 864.5 621.358 855.455 612.314L852.627 615.142ZM821.353 602.188C833.083 602.188 844.332 606.848 852.627 615.142L855.455 612.314C846.411 603.269 834.144 598.188 821.353 598.188V602.188ZM817.414 602.364C818.718 602.247 820.032 602.188 821.353 602.188V598.188C819.913 598.188 818.48 598.252 817.058 598.379L817.414 602.364ZM301.571 481.883C467.122 548.884 638.963 589.045 817.087 602.366L817.385 598.377C639.674 585.087 468.238 545.021 303.071 478.176L301.571 481.883ZM219.4 273.971C227.678 350.459 254.789 419.555 300.717 481.224L303.925 478.835C258.423 417.739 231.578 349.319 223.377 273.541L219.4 273.971ZM220.483 263.758C220.483 267.001 220.126 270.207 219.436 273.324L223.341 274.189C224.094 270.79 224.483 267.294 224.483 263.758H220.483ZM217.41 247.56C219.421 252.671 220.483 258.16 220.483 263.758H224.483C224.483 257.654 223.325 251.668 221.132 246.095L217.41 247.56ZM217.273 246.929L217.273 246.93L221.268 246.726L221.268 246.725L217.273 246.929ZM220.008 248.686L220.009 248.686L218.533 244.968L218.532 244.968L220.008 248.686Z"
      fill="#666666" mask="url(#path-9-inside-5_2467_2311)" />
    <path
      d="M920.754 190.148C902.21 153.576 873.864 132.075 835.716 125.644C873.864 132.075 905.011 149.271 929.156 177.23L920.754 190.148Z"
      fill="#666666" />
    <path
      d="M-12.0834 210.624C3.89204 164.88 1.983 120.965 -17.8105 78.8783C1.983 120.965 9.0019 164.357 3.24616 209.056L-12.0834 210.624Z"
      fill="#666666" />
    <path
      d="M1.07315 215.244C-63.4309 251.506 -115.12 300.376 -153.995 361.856C-115.12 300.376 -67.0922 247.903 -9.91083 204.436L1.07315 215.244Z"
      fill="#666666" />
    <path
      d="M48.2549 461.095C-11.7991 411.614 -79.2158 378.535 -153.995 361.856C-79.2158 378.535 -9.69549 406.928 54.5657 447.037L48.2549 461.095Z"
      fill="#666666" />
    <path
      d="M43.8992 455.783C45.3188 369.796 29.2128 287.815 -4.41895 209.84C29.2128 287.815 50.3262 368.651 58.9212 452.349L43.8992 455.783Z"
      fill="#666666" />
    <path
      d="M932.655 183.97C944.48 141.572 943.472 98.7077 929.631 55.3753C943.472 98.7077 939.347 141.385 917.256 183.409L932.655 183.97Z"
      fill="#666666" />
    <path
      d="M778.008 5.42424C785.366 50.3766 804.602 90.45 835.717 125.644C804.602 90.45 790.117 48.425 792.262 -0.430481L778.008 5.42424Z"
      fill="#666666" />
    <path
      d="M882.444 -57.9112C839.519 -52.3768 807.083 -32.2407 785.134 2.49689C807.083 -32.2407 836.523 -56.5487 873.454 -70.4269L882.444 -57.9112Z"
      fill="#666666" />
    <path
      d="M934.247 61.5444C890.633 68.5165 857.789 89.8832 835.716 125.644C857.789 89.8832 887.556 64.4038 925.015 49.2062L934.247 61.5444Z"
      fill="#666666" />
    <path
      d="M870.877 -61.1116C878.675 -17.1868 898.259 21.6421 929.631 55.3753C898.259 21.6421 883.39 -19.2251 885.021 -67.2265L870.877 -61.1116Z"
      fill="#666666" />
    <path
      d="M-65.0076 607.145C51.8203 590.209 165.707 560.772 276.652 518.836C165.707 560.772 50.6438 585.209 -68.5371 592.145L-65.0076 607.145Z"
      fill="#666666" />
    <path
      d="M57.8523 458.292C108.056 400.491 147.524 335.647 176.253 263.758C147.524 335.647 103.762 397.674 44.9678 449.84L57.8523 458.292Z"
      fill="#666666" />
    <path d="M911.369 37.1134H947.893V73.6372H911.369V37.1134Z" fill="white" stroke="white" stroke-width="2" />
    <path
      d="M929.748 37.0019C922.68 37.0019 916.874 42.5388 916.435 49.4994C910.627 53.3593 908.735 61.1558 912.269 67.2772C915.803 73.3987 923.501 75.6584 929.748 72.5577C935.996 75.6582 943.694 73.3986 947.228 67.2772C950.762 61.1558 948.87 53.3593 943.061 49.4994C942.623 42.5388 936.817 37.0019 929.748 37.0019ZM924.055 50.0098C925.049 50.0312 926.032 50.198 926.975 50.492C925.863 51.4455 924.89 52.5968 924.118 53.9347C923.345 55.2741 922.834 56.694 922.565 58.1351C920.638 56.3585 919.378 53.873 919.186 51.0846C920.748 50.3209 922.416 49.9744 924.055 50.0098ZM935.441 50.0098C937.081 49.9744 938.748 50.3209 940.31 51.0846C940.119 53.873 938.859 56.3585 936.932 58.1351C936.662 56.694 936.152 55.2741 935.379 53.9347C934.606 52.5968 933.633 51.4455 932.521 50.492C933.465 50.1979 934.447 50.0312 935.441 50.0098ZM929.748 51.8199C931.04 52.6925 932.161 53.8655 932.995 55.3109C933.83 56.7562 934.285 58.3129 934.395 59.8682C932.993 60.5508 931.417 60.9345 929.748 60.9345C928.079 60.9345 926.503 60.5509 925.101 59.8683C925.211 58.313 925.667 56.7563 926.502 55.3109C927.336 53.8655 928.456 52.6925 929.748 51.8199ZM916.641 52.8229C917.318 56.4078 919.434 59.4919 922.365 61.4483C922.593 64.9648 924.207 68.3392 926.973 70.7183C922.342 72.1719 917.184 70.2866 914.652 65.9011C912.12 61.5155 913.066 56.1067 916.641 52.8229ZM942.856 52.8229C946.43 56.1067 947.376 61.5155 944.844 65.9011C942.312 70.2866 937.155 72.1718 932.524 70.7183C935.29 68.3392 936.903 64.9648 937.132 61.4483C940.063 59.4919 942.178 56.4078 942.856 52.8229ZM925.334 62.9319C926.717 63.4189 928.202 63.6868 929.748 63.6868C931.295 63.6868 932.78 63.4189 934.162 62.9319C933.587 65.4879 932.066 67.8211 929.748 69.3809C927.43 67.8211 925.909 65.4879 925.334 62.9319Z"
      fill="#666666" />
    <path d="M766.872 -15.7651H803.396V20.7587H766.872V-15.7651Z" fill="white" stroke="white" stroke-width="2" />
    <path
      d="M802.764 14.307C806.298 8.18551 804.406 0.388923 798.597 -3.47097C798.159 -10.4315 792.353 -15.9683 785.284 -15.9683C778.216 -15.9683 772.41 -10.4314 771.972 -3.47077C766.163 0.389192 764.271 8.18562 767.805 14.307C771.339 20.4284 779.037 22.6881 785.284 19.5875C791.531 22.6882 799.23 20.4285 802.764 14.307ZM800.38 12.9308C797.848 17.3176 792.688 19.2028 788.056 17.7469C789.287 16.6884 790.295 15.437 791.049 14.0589C791.989 12.3397 792.541 10.4306 792.668 8.47843C794.296 7.39234 795.673 5.95945 796.691 4.28544C797.508 2.94358 798.088 1.44509 798.389 -0.150217C801.966 3.13334 802.913 8.54405 800.38 12.9308ZM794.345 2.87286C793.83 3.72293 793.194 4.49021 792.468 5.16043C792.198 3.72084 791.687 2.30254 790.915 0.964581C790.141 -0.374774 789.167 -1.52675 788.054 -2.48091C790.556 -3.26122 793.338 -3.10981 795.849 -1.88117C795.729 -0.146739 795.196 1.47064 794.345 2.87286ZM788.652 12.7332C787.863 14.1708 786.729 15.4417 785.287 16.4125C782.968 14.8527 781.445 12.5187 780.87 9.96166C782.253 10.4486 783.738 10.7166 785.284 10.7166C786.829 10.7166 788.313 10.4495 789.695 9.96351C789.477 10.9278 789.131 11.8617 788.652 12.7332ZM789.931 6.89801C788.529 7.58063 786.953 7.96437 785.284 7.96437C783.615 7.96437 782.039 7.58079 780.638 6.89819C780.747 5.34289 781.203 3.78613 782.038 2.34071C782.872 0.895353 783.992 -0.277771 785.284 -1.15041C786.576 -0.277754 787.697 0.895385 788.531 2.34079C789.366 3.78613 789.821 5.34282 789.931 6.89801ZM795.616 -4.95502C792.173 -6.16072 788.444 -5.87069 785.284 -4.31051C782.125 -5.87066 778.396 -6.16071 774.952 -4.95496C776.009 -9.69238 780.22 -13.2161 785.284 -13.2161C790.348 -13.2161 794.56 -9.69238 795.616 -4.95502ZM782.509 17.748C777.878 19.2015 772.72 17.3163 770.188 12.9308C767.656 8.54528 768.602 3.13647 772.177 -0.14736C772.854 3.43749 774.97 6.52176 777.901 8.47811C778.13 11.9946 779.743 15.3688 782.509 17.748Z"
      fill="#666666" />
    <path
      d="M838.399 658.617C841.933 652.496 840.041 644.699 834.232 640.839C833.793 633.879 827.988 628.342 820.919 628.342C813.851 628.342 808.045 633.879 807.606 640.84C801.798 644.7 799.905 652.496 803.44 658.617C806.974 664.739 814.672 666.998 820.919 663.898C827.166 666.999 834.864 664.739 838.399 658.617ZM836.015 657.241C833.482 661.628 828.323 663.513 823.691 662.057C824.922 660.999 825.93 659.747 826.683 658.369C827.624 656.65 828.176 654.741 828.303 652.789C829.93 651.703 831.308 650.27 832.326 648.596C833.143 647.254 833.723 645.756 834.024 644.16C837.601 647.444 838.548 652.854 836.015 657.241ZM829.98 647.183C829.464 648.033 828.829 648.801 828.102 649.471C827.832 648.031 827.322 646.613 826.549 645.275C825.776 643.936 824.802 642.784 823.689 641.83C826.191 641.049 828.973 641.201 831.484 642.429C831.364 644.164 830.83 645.781 829.98 647.183ZM824.287 657.044C823.498 658.481 822.364 659.752 820.922 660.723C818.602 659.163 817.08 656.829 816.505 654.272C817.888 654.759 819.373 655.027 820.919 655.027C822.464 655.027 823.948 654.76 825.329 654.274C825.112 655.238 824.765 656.172 824.287 657.044ZM825.566 651.208C824.164 651.891 822.588 652.275 820.919 652.275C819.25 652.275 817.674 651.891 816.272 651.209C816.382 649.653 816.838 648.097 817.672 646.651C818.507 645.206 819.627 644.033 820.919 643.16C822.211 644.033 823.331 645.206 824.166 646.651C825 648.097 825.456 649.653 825.566 651.208ZM831.251 639.355C827.808 638.15 824.079 638.44 820.919 640C817.759 638.44 814.03 638.15 810.587 639.355C811.644 634.618 815.855 631.094 820.919 631.094C825.983 631.094 830.194 634.618 831.251 639.355ZM818.143 662.058C813.512 663.512 808.355 661.627 805.823 657.241C803.291 652.856 804.237 647.447 807.811 644.163C808.489 647.748 810.605 650.832 813.536 652.789C813.764 656.305 815.378 659.679 818.143 662.058Z"
      fill="#666666" />
    <path
      d="M176.253 246.443C169.185 246.443 163.379 251.633 162.94 258.159C157.132 261.778 155.239 269.087 158.774 274.826C162.308 280.565 170.006 282.683 176.253 279.776C182.5 282.683 190.198 280.565 193.733 274.826C197.267 269.087 195.375 261.778 189.566 258.159C189.128 251.633 183.322 246.443 176.253 246.443ZM176.253 249.023C181.319 249.023 185.531 252.328 186.586 256.771C185.054 256.268 183.466 256.037 181.896 256.07C179.937 256.113 178.007 256.559 176.253 257.371C174.499 256.559 172.569 256.113 170.61 256.07C169.04 256.037 167.452 256.268 165.92 256.771C166.975 252.328 171.188 249.023 176.253 249.023ZM170.56 258.638C171.554 258.658 172.536 258.814 173.48 259.09C172.368 259.984 171.395 261.063 170.623 262.317C169.85 263.573 169.339 264.904 169.069 266.255C167.143 264.589 165.882 262.259 165.691 259.645C167.253 258.929 168.921 258.604 170.56 258.638ZM181.946 258.638C183.586 258.604 185.253 258.929 186.815 259.645C186.624 262.259 185.364 264.589 183.437 266.255C183.167 264.904 182.657 263.573 181.883 262.317C181.111 261.063 180.138 259.984 179.026 259.09C179.97 258.814 180.952 258.658 181.946 258.638ZM163.145 261.275C163.823 264.636 165.939 267.527 168.87 269.361C169.098 272.658 170.712 275.821 173.478 278.052C168.846 279.415 163.689 277.647 161.157 273.536C158.625 269.424 159.571 264.353 163.145 261.275ZM189.361 261.275C192.935 264.353 193.881 269.424 191.349 273.536C188.817 277.647 183.66 279.414 179.029 278.052C181.795 275.821 183.408 272.658 183.637 269.361C186.568 267.527 188.683 264.636 189.361 261.275ZM171.839 270.752C173.222 271.209 174.707 271.46 176.253 271.46C177.8 271.46 179.284 271.209 180.667 270.752C180.092 273.148 178.571 275.336 176.253 276.798C173.935 275.336 172.414 273.148 171.839 270.752Z"
      fill="#666666" />
    <path
      d="M276.771 500.25C269.702 500.25 263.896 505.787 263.458 512.748C257.649 516.608 255.757 524.404 259.291 530.526C262.825 536.647 270.524 538.907 276.771 535.806C283.018 538.907 290.716 536.647 294.25 530.526C297.784 524.404 295.892 516.608 290.083 512.748C289.645 505.787 283.839 500.25 276.771 500.25ZM271.078 513.258C272.072 513.28 273.054 513.447 273.998 513.741C272.886 514.694 271.913 515.845 271.14 517.183C270.367 518.523 269.857 519.943 269.587 521.384C267.66 519.607 266.4 517.122 266.209 514.333C267.771 513.569 269.438 513.223 271.078 513.258ZM282.464 513.258C284.103 513.223 285.771 513.569 287.333 514.333C287.141 517.122 285.881 519.607 283.954 521.384C283.685 519.943 283.174 518.523 282.401 517.183C281.629 515.845 280.655 514.694 279.544 513.741C280.487 513.446 281.47 513.28 282.464 513.258ZM276.771 515.068C278.063 515.941 279.183 517.114 280.018 518.559C280.852 520.005 281.308 521.561 281.418 523.117C280.016 523.799 278.44 524.183 276.771 524.183C275.102 524.183 273.526 523.799 272.124 523.117C272.234 521.562 272.689 520.005 273.524 518.559C274.358 517.114 275.479 515.941 276.771 515.068ZM263.663 516.071C264.341 519.656 266.456 522.741 269.387 524.697C269.616 528.213 271.229 531.588 273.995 533.967C269.364 535.42 264.207 533.535 261.675 529.15C259.143 524.764 260.089 519.355 263.663 516.071ZM289.878 516.071C293.453 519.355 294.399 524.764 291.867 529.15C289.335 533.535 284.177 535.42 279.546 533.967C282.312 531.588 283.925 528.213 284.154 524.697C287.085 522.741 289.201 519.656 289.878 516.071ZM272.356 526.181C273.739 526.667 275.224 526.935 276.771 526.935C278.317 526.935 279.802 526.667 281.185 526.181C280.61 528.737 279.088 531.07 276.771 532.629C274.453 531.07 272.931 528.737 272.356 526.181Z"
      fill="#666666" />
    <path
      d="M935.512 183.689C935.512 189.52 930.785 194.246 924.955 194.246C919.124 194.246 914.397 189.52 914.397 183.689C914.397 177.858 919.124 173.132 924.955 173.132C930.785 173.132 935.512 177.858 935.512 183.689Z"
      fill="#666666" stroke="#D9D9D9" stroke-width="2" />
    <path
      d="M846.272 125.644C846.272 131.475 841.546 136.201 835.715 136.201C829.885 136.201 825.158 131.475 825.158 125.644C825.158 119.814 829.885 115.087 835.715 115.087C841.546 115.087 846.272 119.814 846.272 125.644Z"
      fill="#666666" stroke="white" stroke-width="2" />
    <path
      d="M61.9668 454.066C61.9668 459.897 57.2402 464.623 51.4097 464.623C45.5791 464.623 40.8525 459.897 40.8525 454.066C40.8525 448.235 45.5791 443.509 51.4097 443.509C57.2402 443.509 61.9668 448.235 61.9668 454.066Z"
      fill="#666666" stroke="white" stroke-width="2" />
    <path
      d="M6.13771 209.84C6.13771 215.67 1.41112 220.397 -4.41943 220.397C-10.25 220.397 -14.9766 215.67 -14.9766 209.84C-14.9766 204.009 -10.25 199.283 -4.41943 199.283C1.41112 199.283 6.13771 204.009 6.13771 209.84Z"
      fill="#666666" stroke="white" stroke-width="2" />
  </g>
  <defs>
    <clipPath id="clip0_2467_2311">
      <rect width="1024" height="768" fill="white" />
    </clipPath>
  </defs>
</svg>