<svg width="513" height="513" viewBox="0 0 513 513" fill="none" xmlns="http://www.w3.org/2000/svg">
<g clip-path="url(#clip0_2411_2324)">
<path d="M65.1882 157.909C60.5763 162.521 57.7421 168.615 57.186 175.114C56.6299 181.612 58.3876 188.099 62.1488 193.428C66.0456 198.938 71.8223 202.835 78.3917 204.383C84.961 205.932 91.8698 205.026 97.8177 201.836L183.326 283.09C180.238 288.492 178.585 294.595 178.526 300.817C178.467 307.039 180.004 313.173 182.99 318.632L63.6544 428.001C58.444 424.815 52.4157 423.223 46.3118 423.42C40.2079 423.617 34.2949 425.595 29.3009 429.111C25.9418 431.482 23.0826 434.491 20.8865 437.967C18.6905 441.443 17.2005 445.317 16.5018 449.369C15.8031 453.421 15.9093 457.571 16.8143 461.581C17.7193 465.592 19.4055 469.385 21.7764 472.744C24.1474 476.103 27.1568 478.963 30.6327 481.159C34.1087 483.355 37.9831 484.845 42.0349 485.543C46.0866 486.242 50.2363 486.136 54.2471 485.231C58.2578 484.326 62.051 482.64 65.4101 480.269C69.8894 477.1 73.4574 472.81 75.7564 467.828C78.0555 462.846 79.005 457.347 78.5096 451.882L297.682 366.765C302.422 372.826 309.31 376.833 316.922 377.956C324.534 379.079 332.286 377.233 338.575 372.799C345.071 368.214 349.48 361.236 350.831 353.4C352.182 345.564 350.365 337.512 345.78 331.016C344.637 329.413 343.338 327.926 341.903 326.578L385.241 240.372C389.358 241.145 393.589 241.084 397.682 240.192C401.775 239.3 405.647 237.596 409.07 235.18C412.429 232.809 415.288 229.8 417.484 226.324C419.68 222.848 421.17 218.973 421.869 214.922C422.568 210.87 422.461 206.72 421.556 202.709C420.651 198.699 418.965 194.906 416.594 191.546C412.416 185.64 406.321 181.362 399.345 179.442L398.983 146.659C400.222 146.101 401.405 145.428 402.517 144.647C405.667 142.423 408.162 139.393 409.741 135.875C411.32 132.357 411.924 128.479 411.492 124.647L453.312 100.344C457.857 104.306 463.6 106.628 469.621 106.939C475.642 107.251 481.594 105.533 486.523 102.062C489.414 100.022 491.874 97.4326 493.764 94.4416C495.654 91.4507 496.936 88.1168 497.537 84.6304C498.138 81.1439 498.047 77.5732 497.268 74.1221C496.489 70.6709 495.038 67.407 492.998 64.5166C488.878 58.6793 482.608 54.7178 475.567 53.5037C468.526 52.2895 461.291 53.9221 455.453 58.0423C453.317 59.559 451.414 61.3791 449.804 63.4452L406.388 48.2229C406.154 44.0155 404.746 39.9577 402.324 36.5094C400.616 34.0894 398.448 32.0294 395.944 30.4472C393.44 28.865 390.649 27.7915 387.729 27.2881C384.81 26.7846 381.821 26.861 378.931 27.5129C376.042 28.1648 373.309 29.3795 370.889 31.0875C366.158 34.4353 362.898 39.4753 361.784 45.1623C360.669 50.8494 361.786 56.7472 364.904 61.6327L312.132 137.423C308.787 136.6 305.305 136.503 301.92 137.14C298.535 137.776 295.326 139.131 292.509 141.112C290.447 142.58 288.63 144.362 287.123 146.395L250.949 136.242C250.908 129.851 248.913 123.625 245.231 118.401C240.442 111.617 233.155 107.013 224.973 105.602C216.79 104.191 208.382 106.088 201.598 110.876C197.438 113.812 194.056 117.719 191.747 122.257C189.438 126.796 188.271 131.829 188.346 136.92L107.373 161.54C107.368 161.533 107.363 161.526 107.358 161.518C105.263 158.55 102.604 156.023 99.5318 154.082C96.4601 152.141 93.0362 150.825 89.4555 150.207C85.8749 149.59 82.2077 149.683 78.6633 150.483C75.1189 151.283 71.7668 152.773 68.7982 154.868C67.5104 155.777 66.3028 156.794 65.1882 157.909Z" fill="#0E0E0E"/>
<path fill-rule="evenodd" clip-rule="evenodd" d="M62.1488 193.428C58.3876 188.099 56.6299 181.612 57.186 175.114C57.7421 168.615 60.5763 162.521 65.1882 157.909C66.3027 156.794 67.5104 155.777 68.7982 154.868C71.7668 152.773 75.1189 151.283 78.6633 150.483C82.2077 149.683 85.8749 149.59 89.4555 150.207C93.0361 150.825 96.4601 152.141 99.5318 154.082C102.604 156.023 105.263 158.55 107.358 161.518L107.373 161.54L188.346 136.92C188.271 131.829 189.438 126.796 191.747 122.257C194.056 117.719 197.438 113.812 201.598 110.876C208.382 106.088 216.79 104.191 224.973 105.602C233.155 107.013 240.443 111.617 245.231 118.401C248.913 123.625 250.908 129.851 250.949 136.242L287.123 146.395C288.63 144.362 290.447 142.58 292.509 141.112C295.326 139.131 298.535 137.776 301.92 137.14C305.305 136.503 308.787 136.6 312.132 137.423L364.904 61.6327C361.786 56.7472 360.669 50.8494 361.784 45.1623C362.898 39.4752 366.158 34.4352 370.889 31.0875C373.309 29.3795 376.042 28.1648 378.931 27.5129C381.821 26.8609 384.81 26.7846 387.729 27.288C390.649 27.7915 393.44 28.865 395.944 30.4472C398.448 32.0294 400.616 34.0893 402.324 36.5094C404.746 39.9577 406.154 44.0155 406.388 48.2229L449.804 63.4452C451.414 61.3791 453.317 59.559 455.453 58.0423C461.291 53.9221 468.526 52.2895 475.567 53.5037C482.608 54.7178 488.878 58.6793 492.998 64.5165C495.038 67.4069 496.489 70.6709 497.268 74.122C498.047 77.5732 498.138 81.1439 497.537 84.6303C496.936 88.1168 495.654 91.4507 493.764 94.4416C491.874 97.4326 489.414 100.022 486.523 102.062C481.594 105.533 475.642 107.251 469.621 106.939C463.6 106.628 457.857 104.306 453.312 100.344L411.492 124.647C411.924 128.479 411.32 132.357 409.741 135.875C408.162 139.393 405.667 142.423 402.517 144.647C401.405 145.428 400.222 146.101 398.983 146.659L399.345 179.442C406.321 181.362 412.416 185.64 416.594 191.546C418.965 194.905 420.651 198.699 421.556 202.709C422.461 206.72 422.568 210.87 421.869 214.922C421.17 218.973 419.68 222.848 417.484 226.324C415.288 229.8 412.429 232.809 409.07 235.18C405.647 237.596 401.775 239.3 397.682 240.192C393.589 241.084 389.358 241.145 385.241 240.372L341.903 326.578C343.338 327.926 344.637 329.413 345.78 331.016C350.365 337.512 352.182 345.564 350.831 353.4C349.48 361.236 345.071 368.214 338.575 372.799C332.286 377.233 324.534 379.079 316.922 377.956C309.31 376.832 302.422 372.826 297.682 366.765L78.5096 451.882C79.0049 457.347 78.0555 462.846 75.7564 467.828C73.4574 472.81 69.8894 477.1 65.41 480.269C62.051 482.64 58.2578 484.326 54.2471 485.231C50.2363 486.136 46.0866 486.242 42.0349 485.543C37.9831 484.845 34.1086 483.355 30.6327 481.159C27.1567 478.963 24.1474 476.103 21.7764 472.744C19.4055 469.385 17.7193 465.592 16.8143 461.581C15.9093 457.571 15.8031 453.421 16.5018 449.369C17.2005 445.317 18.6904 441.443 20.8865 437.967C23.0826 434.491 25.9418 431.482 29.3009 429.111C34.2948 425.595 40.2078 423.617 46.3118 423.42C52.4157 423.223 58.444 424.815 63.6544 428.001L182.99 318.632C180.004 313.173 178.467 307.039 178.526 300.817C178.585 294.595 180.238 288.492 183.326 283.09L97.8177 201.836C91.8698 205.026 84.961 205.932 78.3917 204.383C71.8223 202.835 66.0456 198.938 62.1488 193.428ZM94.1563 219.13C87.8741 220.549 81.3021 220.541 74.9366 219.04C64.7919 216.649 55.871 210.632 49.8533 202.122L49.8458 202.111C44.0375 193.882 41.3232 183.865 42.182 173.83C43.0408 163.794 47.4175 154.384 54.5394 147.261M94.1563 219.13L165.48 286.905C164.194 291.364 163.512 295.996 163.468 300.674C163.423 305.357 164.018 310.004 165.221 314.49L60.6716 410.308C55.8855 408.869 50.873 408.206 45.8257 408.369C36.7859 408.661 28.0289 411.591 20.633 416.797L20.6251 416.802L20.6172 416.808C15.6423 420.319 11.4079 424.776 8.15566 429.924C4.90334 435.071 2.69679 440.809 1.66201 446.81C0.627237 452.811 0.784496 458.956 2.12481 464.896C3.46514 470.836 5.96228 476.453 9.47361 481.428C12.9848 486.403 17.4416 490.637 22.5895 493.889C27.7373 497.142 33.4753 499.348 39.4758 500.383C45.4763 501.418 51.6219 501.261 57.5617 499.92C63.5017 498.58 69.1193 496.083 74.0939 492.571L74.1068 492.562C80.7406 487.869 86.0247 481.516 89.4296 474.137C91.1621 470.383 92.3771 466.431 93.056 462.388L294.2 384.272C300.168 388.766 307.211 391.745 314.724 392.853C326.159 394.541 337.805 391.767 347.252 385.107L347.259 385.102C357.018 378.213 363.641 367.73 365.671 355.959C367.536 345.142 365.382 334.051 359.676 324.751L394.314 255.851C396.52 255.694 398.717 255.378 400.888 254.905C406.949 253.584 412.684 251.061 417.753 247.483C422.728 243.972 426.963 239.515 430.215 234.367C433.467 229.219 435.674 223.481 436.709 217.481C437.743 211.48 437.586 205.334 436.246 199.395C434.905 193.455 432.408 187.837 428.897 182.863L428.888 182.85C425.012 177.37 420.022 172.838 414.295 169.516L414.131 154.649C418.111 151.182 421.306 146.884 423.48 142.041C424.699 139.323 425.577 136.479 426.102 133.574L452.969 117.961C457.913 120.313 463.302 121.692 468.843 121.978C478.23 122.464 487.508 119.786 495.194 114.375L495.2 114.37L495.207 114.365C499.713 111.185 503.549 107.148 506.495 102.485C509.44 97.8223 511.439 92.6249 512.377 87.1895C513.314 81.7541 513.172 76.1875 511.957 70.8073C510.743 65.4272 508.482 60.3388 505.301 55.8326C498.878 46.7325 489.102 40.5567 478.126 38.6639C467.149 36.771 455.87 39.3162 446.769 45.7395L446.752 45.7518L446.735 45.7641C446.532 45.9077 446.331 46.0531 446.132 46.2002L419.276 36.7841C418.145 33.6287 416.592 30.6234 414.647 27.8538L414.627 27.826C411.779 23.7902 408.163 20.3551 403.988 17.7166C399.811 15.078 395.157 13.2879 390.289 12.4483C385.421 11.6088 380.436 11.7361 375.617 12.8233C370.799 13.9104 366.241 15.936 362.205 18.7844L362.19 18.7954C354.301 24.3781 348.864 32.7829 347.006 42.2667C345.849 48.1689 346.134 54.2073 347.767 59.8902L304.729 121.701C302.857 121.779 300.988 121.992 299.137 122.34C293.638 123.375 288.423 125.575 283.846 128.795L283.811 128.819L283.777 128.844C283.454 129.073 283.135 129.308 282.82 129.547L264.412 124.38C263.006 119.159 260.69 114.194 257.539 109.725L257.534 109.717C250.442 99.6704 239.65 92.8521 227.532 90.7621C215.414 88.6721 202.961 91.4817 192.914 98.5728C186.753 102.921 181.745 108.707 178.326 115.428C176.714 118.596 175.478 121.925 174.633 125.35L111.852 144.439C110.494 143.325 109.066 142.294 107.575 141.352C102.832 138.354 97.5443 136.321 92.0149 135.367C86.4854 134.414 80.8223 134.559 75.3489 135.794C69.8754 137.029 64.6988 139.329 60.1146 142.565C58.1258 143.969 56.2604 145.54 54.5394 147.261" fill="#D9D9D9"/>
<path d="M112.381 178.125L193.422 153.483C193.632 153.829 193.849 154.172 194.072 154.509C198.004 160.063 203.639 164.184 210.123 166.249L207.255 265.551C202.991 266.481 198.928 268.169 195.261 270.536L109.742 189.272C111.39 185.781 112.289 181.984 112.381 178.125Z" fill="#66C2A5"/>
<path d="M227.444 166.741C231.121 165.807 234.599 164.212 237.706 162.035C241.136 159.599 244.04 156.497 246.245 152.914L282.432 163.071C282.821 167.255 284.298 171.264 286.716 174.701C290.402 179.923 296.011 183.467 302.31 184.553C308.609 185.639 315.082 184.179 320.304 180.493C320.732 180.189 321.15 179.871 321.558 179.54L360.659 202.094C359.546 206.577 359.438 211.25 360.343 215.78L242.237 277.167C237.557 271.824 231.417 267.968 224.573 266.071L227.444 166.741Z" fill="#1B9E77"/>
<path d="M377.189 74.3055L379.896 108.126C379.135 108.53 378.398 108.98 377.69 109.473C373.025 112.765 369.86 117.775 368.89 123.401C367.919 129.027 369.224 134.808 372.516 139.473C374.821 142.729 377.985 145.281 381.657 146.843L382.02 179.641C378.784 180.603 375.725 182.082 372.961 184.021C371.665 184.946 370.441 185.968 369.301 187.078L330.192 164.523C331.133 158.507 329.762 152.358 326.354 147.312L377.189 74.3055Z" fill="#66C2A5"/>
<path d="M394.19 69.556C395.131 69.0829 396.037 68.5445 396.903 67.9447C398.276 66.964 399.535 65.8324 400.655 64.571L444.074 79.7956C444.054 81.6675 444.229 83.5363 444.596 85.3718L402.764 109.683C401.053 108.437 399.168 107.451 397.17 106.755L394.19 69.556Z" fill="#B3E2CD"/>
<path d="M87.1985 429.924L194.685 331.415C200.803 335.5 208.014 337.635 215.369 337.54C222.724 337.445 229.878 335.125 235.888 330.884C238.844 328.783 241.469 326.252 243.676 323.375L291.569 344.606C291.321 346.597 291.274 348.608 291.428 350.608L87.1985 429.924Z" fill="#1B9E77"/>
<path d="M250.234 292.535L368.341 231.148C368.805 231.633 369.284 232.102 369.778 232.556L326.429 318.785C322.543 318.106 318.562 318.2 314.713 319.063C310.863 319.925 307.222 321.538 303.997 323.81C301.997 325.234 300.179 326.898 298.584 328.765L250.717 307.546C251.601 302.563 251.436 297.451 250.234 292.535Z" fill="#0D4E3B"/>
</g>
<defs>
<clipPath id="clip0_2411_2324">
<rect width="512" height="512" fill="white" transform="translate(0.987579 0.479248)"/>
</clipPath>
</defs>
</svg>
