<svg width="513" height="513" viewBox="0 0 513 513" fill="none" xmlns="http://www.w3.org/2000/svg">
<g clip-path="url(#clip0_2411_2323)">
<path d="M52.7067 151.748C47.8066 156.649 44.7953 163.123 44.2044 170.028C43.6135 176.933 45.4811 183.825 49.4773 189.487C53.6177 195.342 59.7555 199.482 66.7354 201.127C73.7153 202.773 81.056 201.81 87.3756 198.42L178.229 284.753C174.947 290.492 173.191 296.977 173.128 303.588C173.065 310.199 174.698 316.716 177.871 322.516L51.077 438.721C45.541 435.336 39.1359 433.644 32.6505 433.854C26.1651 434.063 19.8826 436.165 14.5765 439.9C11.0074 442.419 7.96953 445.617 5.63621 449.31C3.30288 453.003 1.71983 457.12 0.977451 461.425C0.23507 465.73 0.347893 470.139 1.30948 474.4C2.27107 478.661 4.06258 482.692 6.58174 486.261C9.10088 489.83 12.2983 492.868 15.9915 495.201C19.6847 497.534 23.8013 499.117 28.1063 499.86C32.4113 500.602 36.8204 500.489 41.0818 499.528C45.3432 498.566 49.3734 496.775 52.9425 494.255C57.7018 490.889 61.4927 486.33 63.9355 481.037C66.3783 475.743 67.387 469.901 66.8608 464.095L299.731 373.658C304.767 380.098 312.087 384.355 320.174 385.548C328.262 386.741 336.498 384.78 343.18 380.069C350.082 375.197 354.766 367.783 356.202 359.457C357.638 351.132 355.707 342.577 350.835 335.675C349.621 333.971 348.241 332.392 346.716 330.959L392.763 239.366C397.137 240.187 401.632 240.121 405.981 239.174C410.33 238.226 414.444 236.415 418.081 233.849C421.65 231.33 424.688 228.132 427.021 224.439C429.354 220.746 430.937 216.629 431.68 212.324C432.422 208.019 432.309 203.61 431.348 199.349C430.386 195.087 428.595 191.057 426.076 187.488C421.636 181.212 415.16 176.667 407.748 174.627L407.363 139.795C408.68 139.203 409.937 138.487 411.118 137.657C414.466 135.294 417.116 132.075 418.794 128.337C420.471 124.599 421.114 120.479 420.655 116.408L465.088 90.586C469.918 94.7949 476.019 97.2623 482.417 97.5931C488.814 97.924 495.138 96.0993 500.375 92.4111C503.446 90.2435 506.06 87.4921 508.068 84.3143C510.076 81.1364 511.438 77.5941 512.077 73.8898C512.716 70.1854 512.619 66.3915 511.791 62.7247C510.964 59.0579 509.423 55.5899 507.255 52.5189C502.877 46.3168 496.215 42.1077 488.734 40.8177C481.253 39.5277 473.565 41.2623 467.363 45.64C465.094 47.2515 463.072 49.1853 461.36 51.3805L415.231 35.2069C414.983 30.7365 413.487 26.4251 410.914 22.7613C409.099 20.19 406.795 18.0013 404.135 16.3202C401.474 14.6391 398.508 13.4985 395.407 12.9636C392.305 12.4287 389.129 12.5098 386.059 13.2025C382.989 13.8951 380.085 15.1857 377.514 17.0005C372.488 20.5575 369.023 25.9125 367.839 31.955C366.655 37.9975 367.842 44.264 371.154 49.4547L315.084 129.982C311.531 129.107 307.831 129.005 304.234 129.681C300.638 130.357 297.228 131.797 294.235 133.902C292.045 135.461 290.113 137.355 288.512 139.515L250.077 128.727C250.034 121.936 247.914 115.322 244.002 109.771C238.914 102.563 231.172 97.6714 222.478 96.172C213.784 94.6726 204.85 96.6883 197.642 101.776C193.222 104.895 189.629 109.046 187.176 113.868C184.722 118.69 183.482 124.038 183.562 129.448L97.5278 155.607C97.5226 155.599 97.5175 155.591 97.5123 155.583C95.2862 152.429 92.4606 149.744 89.1968 147.682C85.9331 145.62 82.2952 144.221 78.4908 143.565C74.6864 142.909 70.79 143.009 67.024 143.858C63.2581 144.708 59.6965 146.291 56.5424 148.517C55.1741 149.483 53.8909 150.564 52.7067 151.748Z" fill="#0E0E0E"/>
<path d="M102.85 173.228L188.956 147.046C189.179 147.414 189.409 147.777 189.646 148.136C193.824 154.037 199.811 158.416 206.7 160.609L203.653 266.118C199.122 267.106 194.805 268.9 190.909 271.415L100.045 185.072C101.796 181.363 102.751 177.328 102.85 173.228Z" fill="#66C2A5"/>
<path d="M225.103 161.132C229.011 160.14 232.705 158.446 236.007 156.132C239.651 153.544 242.737 150.248 245.08 146.442L283.528 157.233C283.942 161.678 285.511 165.938 288.08 169.59C291.996 175.138 297.956 178.904 304.649 180.058C311.342 181.212 318.219 179.66 323.767 175.744C324.222 175.421 324.667 175.083 325.1 174.732L366.645 198.695C365.461 203.458 365.347 208.424 366.309 213.236L240.821 278.46C235.849 272.783 229.325 268.686 222.053 266.671L225.103 161.132Z" fill="#1B9E77"/>
<path d="M384.208 62.9197L387.084 98.8538C386.275 99.2833 385.492 99.7611 384.739 100.285C379.784 103.783 376.42 109.106 375.389 115.084C374.359 121.061 375.744 127.204 379.242 132.16C381.691 135.62 385.054 138.331 388.954 139.991L389.34 174.839C385.902 175.861 382.652 177.433 379.715 179.493C378.338 180.475 377.038 181.561 375.826 182.741L334.274 158.776C335.273 152.384 333.816 145.851 330.195 140.489L384.208 62.9197Z" fill="#66C2A5"/>
<path d="M402.271 57.8733C403.271 57.3707 404.234 56.7986 405.154 56.1613C406.613 55.1193 407.95 53.917 409.141 52.5768L455.272 68.7529C455.251 70.7418 455.437 72.7274 455.828 74.6776L411.381 100.508C409.563 99.1848 407.561 98.1364 405.437 97.3971L402.271 57.8733Z" fill="#B3E2CD"/>
<path d="M76.0928 440.764L190.297 336.099C196.797 340.438 204.459 342.707 212.274 342.606C220.089 342.506 227.69 340.04 234.076 335.534C237.216 333.302 240.005 330.612 242.35 327.556L293.236 350.114C292.973 352.229 292.923 354.366 293.087 356.491L76.0928 440.764Z" fill="#1B9E77"/>
<path d="M249.317 294.789L374.807 229.565C375.3 230.08 375.809 230.579 376.334 231.061L330.275 322.679C326.147 321.958 321.916 322.058 317.826 322.974C313.737 323.89 309.868 325.605 306.442 328.019C304.316 329.531 302.384 331.299 300.69 333.283L249.831 310.738C250.771 305.444 250.595 300.012 249.317 294.789Z" fill="#0D4E3B"/>
</g>
<defs>
<clipPath id="clip0_2411_2323">
<rect width="512" height="512" fill="white" transform="translate(0.493591 0.479248)"/>
</clipPath>
</defs>
</svg>
