<svg width="513" height="512" viewBox="0 0 513 512" fill="none" xmlns="http://www.w3.org/2000/svg">
<path d="M105.74 178.27C102.103 181.907 99.8677 186.712 99.4292 191.837C98.9906 196.962 100.377 202.077 103.343 206.279C106.416 210.625 110.971 213.697 116.151 214.918C121.332 216.14 126.78 215.425 131.47 212.909L198.9 276.985C196.464 281.244 195.161 286.057 195.115 290.964C195.068 295.87 196.28 300.707 198.635 305.012L104.53 391.258C100.421 388.745 95.6675 387.49 90.8541 387.645C86.0407 387.801 81.3778 389.36 77.4397 392.133C74.7908 394.002 72.5361 396.375 70.8044 399.116C69.0726 401.857 67.8977 404.913 67.3467 408.108C66.7957 411.303 66.8794 414.575 67.5931 417.738C68.3068 420.901 69.6364 423.892 71.5061 426.541C73.3758 429.19 75.7489 431.445 78.4899 433.176C81.231 434.908 84.2863 436.083 87.4814 436.634C90.6765 437.185 93.9489 437.101 97.1116 436.388C100.274 435.674 103.266 434.344 105.914 432.474C109.447 429.976 112.26 426.592 114.073 422.664C115.886 418.735 116.635 414.399 116.244 410.09L289.078 342.968C292.816 347.748 298.248 350.907 304.25 351.793C310.253 352.679 316.366 351.223 321.325 347.727C326.448 344.111 329.924 338.608 330.99 332.429C332.055 326.25 330.623 319.901 327.007 314.778C326.105 313.514 325.081 312.341 323.95 311.278L358.125 243.298C361.372 243.908 364.708 243.859 367.935 243.156C371.163 242.453 374.217 241.109 376.916 239.204C379.564 237.334 381.819 234.961 383.551 232.22C385.283 229.479 386.458 226.424 387.009 223.229C387.56 220.034 387.476 216.761 386.762 213.598C386.049 210.436 384.719 207.444 382.849 204.796C379.554 200.138 374.748 196.765 369.247 195.25L368.961 169.398C369.938 168.959 370.871 168.427 371.748 167.812C374.232 166.058 376.2 163.669 377.445 160.895C378.69 158.12 379.167 155.062 378.826 152.041L411.804 132.876C415.388 136 419.917 137.831 424.665 138.077C429.413 138.322 434.106 136.968 437.994 134.231C440.273 132.622 442.213 130.58 443.703 128.221C445.193 125.863 446.204 123.234 446.679 120.484C447.153 117.735 447.081 114.919 446.467 112.198C445.852 109.476 444.708 106.902 443.099 104.623C439.85 100.02 434.906 96.8961 429.353 95.9386C423.801 94.9812 418.096 96.2686 413.492 99.5177C411.808 100.714 410.307 102.149 409.037 103.778L374.801 91.7743C374.616 88.4565 373.506 85.2566 371.596 82.5374C370.249 80.629 368.54 79.0046 366.565 77.7569C364.59 76.5092 362.389 75.6627 360.087 75.2657C357.785 74.8686 355.428 74.9289 353.149 75.443C350.871 75.957 348.716 76.9149 346.807 78.2618C343.077 80.9018 340.506 84.8762 339.627 89.3608C338.748 93.8455 339.629 98.4964 342.087 102.349L300.473 162.115C297.835 161.466 295.089 161.39 292.42 161.892C289.751 162.394 287.22 163.462 284.999 165.025C283.373 166.182 281.94 167.587 280.752 169.19L252.225 161.184C252.194 156.144 250.62 151.234 247.716 147.115C243.941 141.765 238.194 138.135 231.741 137.022C225.289 135.909 218.658 137.405 213.309 141.181C210.028 143.496 207.362 146.577 205.541 150.156C203.72 153.735 202.799 157.704 202.859 161.719L139.005 181.133C139.001 181.128 138.997 181.122 138.994 181.116C137.341 178.775 135.244 176.783 132.822 175.252C130.4 173.722 127.7 172.683 124.876 172.196C122.053 171.709 119.161 171.783 116.366 172.414C113.571 173.045 110.927 174.22 108.586 175.872C107.571 176.589 106.618 177.391 105.74 178.27Z" fill="#0E0E0E"/>
<path d="M142.955 194.212L206.862 174.78C207.027 175.053 207.198 175.323 207.374 175.589C210.475 179.968 214.918 183.218 220.031 184.847L217.77 263.154C214.407 263.887 211.203 265.218 208.312 267.085L140.874 203.002C142.173 200.249 142.882 197.255 142.955 194.212Z" fill="#66C2A5"/>
<path d="M233.69 185.234C236.59 184.498 239.332 183.24 241.782 181.523C244.487 179.603 246.778 177.157 248.516 174.331L277.052 182.34C277.359 185.64 278.524 188.801 280.43 191.512C283.337 195.63 287.761 198.424 292.728 199.281C297.695 200.137 302.799 198.986 306.917 196.079C307.255 195.839 307.585 195.589 307.906 195.328L338.74 213.113C337.862 216.648 337.777 220.334 338.491 223.905L245.355 272.313C241.665 268.101 236.824 265.059 231.427 263.564L233.69 185.234Z" fill="#1B9E77"/>
<path d="M351.775 112.343L353.91 139.012C353.31 139.331 352.728 139.686 352.17 140.074C348.492 142.67 345.996 146.621 345.231 151.058C344.466 155.495 345.494 160.053 348.09 163.732C349.908 166.299 352.403 168.312 355.298 169.544L355.585 195.408C353.033 196.166 350.621 197.333 348.441 198.862C347.419 199.591 346.454 200.396 345.555 201.272L314.715 183.486C315.457 178.742 314.375 173.893 311.688 169.914L351.775 112.343Z" fill="#66C2A5"/>
<path d="M365.182 108.597C365.924 108.224 366.639 107.8 367.321 107.327C368.404 106.553 369.397 105.661 370.28 104.666L404.519 116.672C404.503 118.148 404.641 119.622 404.931 121.069L371.943 140.241C370.594 139.258 369.108 138.48 367.532 137.931L365.182 108.597Z" fill="#B3E2CD"/>
<path d="M123.096 392.774L207.858 315.093C212.682 318.314 218.368 319.997 224.168 319.923C229.968 319.848 235.61 318.018 240.349 314.674C242.68 313.017 244.75 311.021 246.49 308.752L284.258 325.495C284.062 327.065 284.025 328.65 284.147 330.228L123.096 392.774Z" fill="#1B9E77"/>
<path d="M251.662 284.433L344.798 236.025C345.164 236.407 345.542 236.777 345.931 237.135L311.747 305.133C308.683 304.597 305.543 304.671 302.508 305.351C299.473 306.031 296.601 307.304 294.058 309.096C292.481 310.218 291.047 311.53 289.79 313.003L252.043 296.27C252.74 292.341 252.61 288.309 251.662 284.433Z" fill="#0D4E3B"/>
</svg>
