<svg width="513" height="512" viewBox="0 0 513 512" fill="none" xmlns="http://www.w3.org/2000/svg">
<g clip-path="url(#clip0_2411_2323)">
<path d="M53.2007 151.269C48.3006 156.17 45.2893 162.644 44.6984 169.549C44.1075 176.454 45.975 183.346 49.9713 189.007C54.1117 194.863 60.2495 199.003 67.2294 200.648C74.2093 202.293 81.55 201.331 87.8695 197.941L178.723 284.274C175.441 290.013 173.685 296.498 173.622 303.109C173.559 309.72 175.192 316.237 178.365 322.037L51.571 438.242C46.035 434.857 39.6299 433.165 33.1445 433.375C26.6591 433.584 20.3765 435.686 15.0705 439.421C11.5014 441.94 8.46352 445.137 6.13019 448.83C3.79687 452.524 2.21382 456.64 1.47144 460.945C0.729058 465.25 0.841881 469.659 1.80347 473.921C2.76505 478.182 4.55657 482.212 7.07573 485.781C9.59487 489.35 12.7923 492.388 16.4855 494.722C20.1787 497.055 24.2953 498.638 28.6003 499.38C32.9053 500.123 37.3144 500.01 41.5758 499.048C45.8372 498.087 49.8674 496.295 53.4364 493.776C58.1958 490.409 61.9867 485.851 64.4295 480.557C66.8722 475.264 67.881 469.422 67.3548 463.616L300.225 373.178C305.261 379.618 312.581 383.875 320.668 385.069C328.756 386.262 336.992 384.3 343.674 379.59C350.576 374.718 355.26 367.303 356.696 358.978C358.132 350.652 356.201 342.098 351.329 335.195C350.115 333.492 348.735 331.912 347.21 330.479L393.257 238.886C397.631 239.707 402.126 239.642 406.475 238.694C410.824 237.747 414.938 235.936 418.575 233.369C422.144 230.85 425.182 227.653 427.515 223.96C429.848 220.266 431.431 216.15 432.174 211.845C432.916 207.54 432.803 203.131 431.842 198.869C430.88 194.608 429.089 190.578 426.57 187.009C422.13 180.733 415.654 176.188 408.242 174.147L407.857 139.316C409.174 138.723 410.431 138.007 411.612 137.178C414.96 134.815 417.61 131.596 419.288 127.858C420.965 124.12 421.608 120 421.148 115.929L465.582 90.1066C470.411 94.3156 476.513 96.7829 482.911 97.1138C489.308 97.4447 495.632 95.62 500.869 91.9317C503.94 89.7641 506.554 87.0128 508.562 83.8349C510.57 80.657 511.932 77.1148 512.571 73.4104C513.21 69.7061 513.113 65.9122 512.285 62.2453C511.458 58.5785 509.917 55.1106 507.749 52.0395C503.371 45.8374 496.709 41.6284 489.228 40.3383C481.747 39.0483 474.059 40.7829 467.857 45.1607C465.588 46.7721 463.566 48.706 461.854 50.9012L415.725 34.7275C415.477 30.2571 413.981 25.9457 411.408 22.2819C409.593 19.7106 407.289 17.5219 404.629 15.8408C401.968 14.1597 399.002 13.0192 395.901 12.4842C392.799 11.9493 389.623 12.0304 386.553 12.7231C383.483 13.4158 380.579 14.7064 378.008 16.5212C372.982 20.0781 369.517 25.4331 368.333 31.4756C367.149 37.5182 368.336 43.7846 371.648 48.9754L315.578 129.502C312.025 128.628 308.325 128.526 304.728 129.202C301.132 129.878 297.722 131.317 294.729 133.423C292.539 134.982 290.607 136.876 289.006 139.035L250.571 128.248C250.528 121.457 248.408 114.842 244.496 109.292C239.408 102.084 231.666 97.192 222.972 95.6926C214.278 94.1932 205.344 96.2089 198.136 101.296C193.716 104.416 190.123 108.567 187.67 113.389C185.216 118.211 183.976 123.559 184.056 128.968L98.0218 155.127C98.0166 155.119 98.0115 155.112 98.0063 155.104C95.7801 151.95 92.9545 149.265 89.6908 147.203C86.4271 145.141 82.7892 143.742 78.9848 143.086C75.1803 142.43 71.2839 142.529 67.518 143.379C63.7521 144.229 60.1904 145.812 57.0364 148.038C55.6681 149.004 54.3849 150.085 53.2007 151.269Z" fill="#0E0E0E"/>
<path d="M103.343 172.748L189.45 146.566C189.672 146.934 189.903 147.298 190.14 147.657C194.318 153.557 200.305 157.936 207.194 160.13L204.147 265.639C199.616 266.626 195.299 268.42 191.403 270.935L100.539 184.592C102.29 180.883 103.245 176.849 103.343 172.748Z" fill="#66C2A5"/>
<path d="M225.597 160.653C229.505 159.661 233.199 157.966 236.501 155.653C240.145 153.065 243.231 149.769 245.574 145.962L284.022 156.753C284.436 161.199 286.005 165.459 288.574 169.111C292.49 174.659 298.45 178.424 305.143 179.579C311.836 180.733 318.713 179.181 324.261 175.264C324.716 174.942 325.161 174.604 325.594 174.252L367.139 198.215C365.955 202.978 365.841 207.944 366.803 212.757L241.315 277.98C236.343 272.304 229.819 268.206 222.547 266.191L225.597 160.653Z" fill="#1B9E77"/>
<path d="M384.702 62.4402L387.578 98.3743C386.769 98.8038 385.986 99.2816 385.233 99.8051C380.278 103.303 376.914 108.626 375.883 114.604C374.853 120.582 376.238 126.724 379.736 131.68C382.185 135.14 385.548 137.851 389.448 139.511L389.834 174.359C386.396 175.382 383.146 176.953 380.209 179.013C378.832 179.995 377.532 181.081 376.32 182.261L334.768 158.296C335.767 151.905 334.31 145.371 330.689 140.01L384.702 62.4402Z" fill="#66C2A5"/>
<path d="M402.765 57.3939C403.765 56.8913 404.728 56.3192 405.648 55.6819C407.107 54.64 408.444 53.4376 409.635 52.0974L455.766 68.2735C455.745 70.2624 455.931 72.248 456.322 74.1982L411.875 100.029C410.057 98.7055 408.055 97.6571 405.931 96.9177L402.765 57.3939Z" fill="#B3E2CD"/>
<path d="M76.5867 440.285L190.791 335.62C197.291 339.959 204.953 342.228 212.768 342.127C220.583 342.026 228.184 339.561 234.57 335.055C237.71 332.822 240.499 330.133 242.844 327.076L293.73 349.635C293.467 351.75 293.417 353.887 293.581 356.012L76.5867 440.285Z" fill="#1B9E77"/>
<path d="M249.811 294.309L375.301 229.086C375.794 229.601 376.303 230.099 376.828 230.582L330.769 322.2C326.641 321.478 322.41 321.578 318.32 322.495C314.23 323.411 310.362 325.125 306.936 327.539C304.81 329.052 302.878 330.82 301.184 332.803L250.325 310.259C251.265 304.964 251.089 299.532 249.811 294.309Z" fill="#0D4E3B"/>
</g>
<defs>
<clipPath id="clip0_2411_2323">
<rect width="512" height="512" fill="white" transform="translate(0.987579)"/>
</clipPath>
</defs>
</svg>
