<svg width="16" height="16" viewBox="0 0 16 16" fill="none" xmlns="http://www.w3.org/2000/svg">
<path fill-rule="evenodd" clip-rule="evenodd" d="M13 1.36612C12.6638 1.36612 12.3413 1.49969 12.1036 1.73744L1.78483 12.0562L1.18719 14.4467L3.57772 13.8491L13.8965 3.53033C14.0142 3.41261 14.1076 3.27285 14.1713 3.11904C14.235 2.96523 14.2678 2.80037 14.2678 2.63389C14.2678 2.4674 14.235 2.30255 14.1713 2.14873C14.1076 1.99492 14.0142 1.85516 13.8965 1.73744C13.7787 1.61972 13.639 1.52633 13.4852 1.46262C13.3314 1.39891 13.1665 1.36612 13 1.36612ZM11.3965 1.03033C11.8217 0.605044 12.3986 0.366119 13 0.366119C13.2978 0.366119 13.5927 0.424777 13.8678 0.538743C14.143 0.652709 14.393 0.819751 14.6036 1.03033C14.8141 1.24091 14.9812 1.49091 15.0952 1.76605C15.2091 2.04119 15.2678 2.33608 15.2678 2.63389C15.2678 2.93169 15.2091 3.22659 15.0952 3.50172C14.9812 3.77686 14.8141 4.02686 14.6036 4.23744L4.1869 14.6541C4.12282 14.7182 4.04253 14.7636 3.95461 14.7856L0.621278 15.619C0.450891 15.6616 0.270647 15.6116 0.146457 15.4874C0.022267 15.3632 -0.0276575 15.183 0.0149394 15.0126L0.848273 11.6793C0.870252 11.5914 0.915711 11.5111 0.979791 11.447L11.3965 1.03033ZM7.50001 15.1339C7.50001 14.8577 7.72387 14.6339 8.00001 14.6339H15.5C15.7762 14.6339 16 14.8577 16 15.1339C16 15.41 15.7762 15.6339 15.5 15.6339H8.00001C7.72387 15.6339 7.50001 15.41 7.50001 15.1339Z" fill="white"/>
</svg>
