<svg width="16" height="16" viewBox="0 0 16 16" fill="none" xmlns="http://www.w3.org/2000/svg">
<path fill-rule="evenodd" clip-rule="evenodd" d="M8 1C7.77095 1 7.55128 1.09099 7.38932 1.25295C7.22735 1.41492 7.13636 1.63459 7.13636 1.86364V1.98154C7.1351 2.29845 7.04119 2.60808 6.86621 2.8723C6.69123 3.13653 6.4428 3.34382 6.15151 3.46866C6.10372 3.48915 6.05311 3.50201 6.00153 3.50688C5.7316 3.60512 5.43976 3.63028 5.15585 3.5788C4.83637 3.52087 4.54157 3.36857 4.30946 3.14152L4.30552 3.13767L4.26463 3.09674C4.18442 3.01644 4.08897 2.95254 3.98413 2.90908C3.87929 2.86562 3.7669 2.84325 3.65341 2.84325C3.53991 2.84325 3.42753 2.86562 3.32269 2.90908C3.21784 2.95254 3.12259 3.01624 3.04239 3.09654C2.96209 3.17675 2.89799 3.27239 2.85453 3.37723C2.81107 3.48208 2.7887 3.59446 2.7887 3.70795C2.7887 3.82145 2.81107 3.93383 2.85453 4.03868C2.89799 4.14352 2.9617 4.23877 3.04199 4.31898L3.087 4.36398C3.31404 4.59609 3.46633 4.89091 3.52425 5.21039C3.58124 5.52469 3.54432 5.84869 3.41829 6.14194C3.30471 6.44171 3.10496 6.70132 2.84403 6.88794C2.57882 7.07763 2.26267 7.18315 1.93669 7.19077L1.925 7.19105L1.86364 7.19091C1.63459 7.19091 1.41492 7.2819 1.25295 7.44386C1.09099 7.60583 1 7.82549 1 8.05455C1 8.2836 1.09099 8.50327 1.25295 8.66523C1.41492 8.82719 1.63459 8.91818 1.86364 8.91818H1.98154C2.29845 8.91945 2.60808 9.01335 2.8723 9.18834C3.13578 9.36282 3.34264 9.61034 3.4676 9.90056C3.59783 10.197 3.63657 10.5255 3.5788 10.8442C3.52087 11.1636 3.36857 11.4584 3.14152 11.6905L3.13766 11.6945L3.09673 11.7354C3.01644 11.8156 2.95254 11.911 2.90908 12.0159C2.86562 12.1207 2.84325 12.2331 2.84325 12.3466C2.84325 12.4601 2.86562 12.5725 2.90908 12.6773C2.95254 12.7822 3.01624 12.8774 3.09654 12.9576C3.17675 13.0379 3.27239 13.102 3.37723 13.1455C3.48208 13.1889 3.59446 13.2113 3.70795 13.2113C3.82145 13.2113 3.93383 13.1889 4.03868 13.1455C4.14352 13.102 4.23877 13.0383 4.31898 12.958L4.36398 12.913C4.59609 12.686 4.89091 12.5337 5.21039 12.4757C5.52469 12.4188 5.84869 12.4557 6.14194 12.5817C6.44171 12.6953 6.70132 12.895 6.88794 13.156C7.07763 13.4212 7.18315 13.7373 7.19077 14.0633L7.19105 14.075L7.19091 14.1364C7.19091 14.3654 7.2819 14.5851 7.44386 14.747C7.60583 14.909 7.8255 15 8.05455 15C8.2836 15 8.50326 14.909 8.66523 14.747C8.82719 14.5851 8.91818 14.3654 8.91818 14.1364V14.0205L8.91819 14.0185C8.91945 13.7015 9.01335 13.3919 9.18834 13.1277C9.36284 12.8642 9.61037 12.6573 9.90061 12.5324C10.197 12.4022 10.5256 12.3634 10.8442 12.4212C11.1636 12.4791 11.4584 12.6314 11.6905 12.8585L11.6945 12.8623L11.7354 12.9033C11.8156 12.9836 11.911 13.0475 12.0159 13.0909C12.1207 13.1344 12.2331 13.1568 12.3466 13.1568C12.4601 13.1568 12.5725 13.1344 12.6773 13.0909C12.7822 13.0475 12.8774 12.9838 12.9576 12.9035C13.0379 12.8233 13.102 12.7276 13.1455 12.6228C13.1889 12.5179 13.2113 12.4055 13.2113 12.292C13.2113 12.1786 13.1889 12.0662 13.1455 11.9613C13.102 11.8565 13.0383 11.7612 12.958 11.681L12.913 11.636C12.686 11.4039 12.5337 11.1091 12.4757 10.7896C12.418 10.471 12.4567 10.1425 12.5869 9.84607C12.7119 9.55582 12.9188 9.30829 13.1822 9.13379C13.4465 8.95881 13.7561 8.8649 14.073 8.86364L14.075 8.86363L14.1364 8.86364C14.3654 8.86364 14.5851 8.77265 14.747 8.61068C14.909 8.44872 15 8.22905 15 8C15 7.77095 14.909 7.55128 14.747 7.38932C14.5851 7.22735 14.3654 7.13636 14.1364 7.13636H14.0205L14.0185 7.13636C13.7015 7.1351 13.3919 7.04119 13.1277 6.86621C12.8635 6.69123 12.6562 6.4428 12.5313 6.15151C12.5109 6.10372 12.498 6.05311 12.4931 6.00153C12.3949 5.73159 12.3697 5.43976 12.4212 5.15585C12.4791 4.83637 12.6314 4.54157 12.8585 4.30946L12.8623 4.30552L12.9033 4.26463C12.9836 4.18442 13.0475 4.08897 13.0909 3.98413C13.1344 3.87929 13.1568 3.7669 13.1568 3.65341C13.1568 3.53991 13.1344 3.42753 13.0909 3.32269C13.0475 3.21784 12.9838 3.1226 12.9035 3.04239C12.8233 2.96209 12.7276 2.89799 12.6228 2.85453C12.5179 2.81107 12.4055 2.7887 12.292 2.7887C12.1786 2.7887 12.0662 2.81107 11.9613 2.85453C11.8565 2.89799 11.7612 2.9617 11.681 3.04199L11.636 3.087C11.4039 3.31404 11.1091 3.46633 10.7896 3.52425C10.471 3.58202 10.1424 3.54329 9.84601 3.41305C9.55579 3.2881 9.30828 3.08123 9.13379 2.81776C8.95881 2.55353 8.8649 2.24391 8.86364 1.92699L8.86364 1.925V1.86364C8.86364 1.63459 8.77265 1.41492 8.61068 1.25295C8.44872 1.09099 8.22905 1 8 1ZM6.68221 0.545846C7.03171 0.196347 7.50573 0 8 0C8.49427 0 8.96829 0.196347 9.31779 0.545846C9.66729 0.895346 9.86364 1.36937 9.86364 1.86364V1.92383C9.86428 2.04543 9.90039 2.16421 9.96754 2.26561C10.0348 2.36723 10.1304 2.44696 10.2424 2.49498L10.2473 2.49709C10.3616 2.54751 10.4883 2.56258 10.6112 2.5403C10.7333 2.51816 10.846 2.46018 10.935 2.37376L10.9735 2.33528C11.1466 2.162 11.3521 2.02455 11.5784 1.93076C11.8046 1.83697 12.0471 1.7887 12.292 1.7887C12.537 1.7887 12.7795 1.83697 13.0057 1.93076C13.2319 2.02455 13.4375 2.16201 13.6106 2.33528C13.7837 2.50828 13.921 2.71368 14.0147 2.93975C14.1085 3.16599 14.1568 3.4085 14.1568 3.65341C14.1568 3.89832 14.1085 4.14083 14.0147 4.36707C13.9209 4.59323 13.7836 4.79869 13.6104 4.97173C13.6103 4.9718 13.6104 4.97167 13.6104 4.97173L13.5717 5.01041C13.4853 5.09942 13.4273 5.21215 13.4052 5.33426C13.3829 5.45714 13.3979 5.58387 13.4483 5.69812C13.4665 5.73935 13.479 5.78276 13.4856 5.82713C13.5336 5.90922 13.6 5.97957 13.6798 6.03246C13.7812 6.0996 13.9 6.1357 14.0215 6.13636H14.1364C14.6306 6.13636 15.1047 6.33271 15.4542 6.68221C15.8037 7.03171 16 7.50573 16 8C16 8.49427 15.8037 8.96829 15.4542 9.31779C15.1047 9.66729 14.6306 9.86364 14.1364 9.86364H14.0762C13.9546 9.86428 13.8358 9.90039 13.7344 9.96754C13.6328 10.0348 13.553 10.1304 13.505 10.2424L13.5029 10.2473C13.4525 10.3616 13.4374 10.4883 13.4597 10.6112C13.4818 10.7333 13.5398 10.846 13.6262 10.935L13.6647 10.9735C13.838 11.1466 13.9755 11.3521 14.0692 11.5784C14.163 11.8046 14.2113 12.0471 14.2113 12.292C14.2113 12.537 14.163 12.7795 14.0692 13.0057C13.9755 13.2319 13.838 13.4375 13.6647 13.6106C13.6646 13.6107 13.6649 13.6104 13.6647 13.6106C13.4917 13.7837 13.2863 13.921 13.0603 14.0147C12.834 14.1085 12.5915 14.1568 12.3466 14.1568C12.1017 14.1568 11.8592 14.1085 11.6329 14.0147C11.4067 13.9209 11.2011 13.7834 11.0281 13.6102L10.9896 13.5717C10.9901 13.5722 10.9907 13.5728 10.9913 13.5733L11.3409 13.2159L10.9874 13.5695L10.9896 13.5717C10.9006 13.4853 10.7878 13.4273 10.6657 13.4052C10.5429 13.3829 10.4161 13.3979 10.3019 13.4483L10.297 13.4505C10.1849 13.4985 10.0894 13.5782 10.0221 13.6798C9.95493 13.7812 9.91883 13.9 9.91818 14.0216V14.0205H9.41818L9.91818 14.0216C9.91818 14.0219 9.91818 14.0214 9.91818 14.0216V14.1364C9.91818 14.6306 9.72183 15.1047 9.37234 15.4542C9.02284 15.8037 8.54881 16 8.05455 16C7.56028 16 7.08626 15.8037 6.73676 15.4542C6.38726 15.1047 6.19091 14.6306 6.19091 14.1364V14.0817C6.19096 14.0834 6.19101 14.085 6.19105 14.0867L6.69091 14.075H6.19091V14.0817C6.18703 13.9581 6.14656 13.8384 6.07457 13.7377C6.00162 13.6357 5.89966 13.558 5.78195 13.5147C5.77207 13.5111 5.7623 13.5071 5.75266 13.5029C5.63841 13.4525 5.51168 13.4374 5.3888 13.4597C5.2667 13.4818 5.15396 13.5398 5.06495 13.6262L5.06719 13.624L4.71364 13.2705L5.06327 13.6279C5.06383 13.6273 5.06439 13.6268 5.06495 13.6262L5.02648 13.6647C4.85339 13.838 4.64786 13.9755 4.42162 14.0692C4.19537 14.163 3.95287 14.2113 3.70795 14.2113C3.46304 14.2113 3.22053 14.163 2.99429 14.0692C2.76805 13.9755 2.56251 13.838 2.38943 13.6647C2.3893 13.6646 2.38956 13.6649 2.38943 13.6647C2.21634 13.4917 2.07902 13.2863 1.9853 13.0603C1.89152 12.834 1.84325 12.5915 1.84325 12.3466C1.84325 12.1017 1.89152 11.8592 1.9853 11.6329C2.07909 11.4067 2.21655 11.2011 2.38983 11.0281L2.42831 10.9896C2.42776 10.9901 2.42721 10.9907 2.42666 10.9913L2.78409 11.3409L2.43054 10.9874L2.42831 10.9896C2.51472 10.9006 2.5727 10.7878 2.59484 10.6657C2.61712 10.5429 2.60208 10.4161 2.55166 10.3019L2.54949 10.297C2.50148 10.1849 2.42178 10.0894 2.32015 10.0221C2.21875 9.95493 2.09997 9.91883 1.97837 9.91818H1.97955V9.4182L1.97837 9.91818C1.9781 9.91818 1.97865 9.91818 1.97837 9.91818H1.86364C1.36937 9.91818 0.895346 9.72183 0.545846 9.37234C0.196347 9.02284 0 8.54881 0 8.05455C0 7.56028 0.196347 7.08626 0.545846 6.73676C0.895346 6.38726 1.36937 6.19091 1.86364 6.19091H1.9183C1.91664 6.19096 1.91497 6.19101 1.91331 6.19105L1.925 6.69091V6.19091H1.9183C2.04191 6.18703 2.16163 6.14656 2.26228 6.07457C2.36429 6.00162 2.44199 5.89966 2.48528 5.78195C2.48891 5.77207 2.49286 5.7623 2.49711 5.75266C2.54754 5.63841 2.56258 5.51168 2.5403 5.3888C2.51816 5.2667 2.46018 5.15397 2.37376 5.06496L2.37599 5.06719L2.72955 4.71364L2.37211 5.06327C2.37266 5.06383 2.37321 5.0644 2.37376 5.06496L2.33528 5.02648C2.16201 4.8534 2.02455 4.64786 1.93076 4.42162C1.83697 4.19537 1.7887 3.95287 1.7887 3.70795C1.7887 3.46304 1.83697 3.22053 1.93076 2.99429C2.02451 2.76814 2.1619 2.56267 2.33508 2.38963C2.50812 2.21645 2.71359 2.07906 2.93975 1.9853C3.16599 1.89152 3.4085 1.84325 3.65341 1.84325C3.89832 1.84325 4.14083 1.89152 4.36707 1.9853C4.59331 2.07909 4.79885 2.21655 4.97193 2.38983L5.01041 2.42831C5.00985 2.42776 5.00929 2.42721 5.00872 2.42666L4.65909 2.78409L5.01264 2.43054L5.01041 2.42831C5.09943 2.51472 5.21216 2.5727 5.33426 2.59484C5.45713 2.61712 5.58387 2.60208 5.69812 2.55166C5.73935 2.53346 5.78276 2.52097 5.82713 2.51443C5.80478 2.52751 5.78156 2.53924 5.75758 2.54952L5.95455 3.00909V2.50909H5.9C5.87555 2.50909 5.8512 2.51088 5.82713 2.51443C5.90922 2.46637 5.97957 2.40003 6.03246 2.32015C6.0996 2.21878 6.1357 2.10003 6.13636 1.97846V1.97955H6.63635L6.13636 1.97846C6.13636 1.97876 6.13636 1.97816 6.13636 1.97846V1.86364C6.13636 1.36937 6.33271 0.895346 6.68221 0.545846ZM8 6.45455C7.14647 6.45455 6.45455 7.14647 6.45455 8C6.45455 8.85353 7.14647 9.54545 8 9.54545C8.85353 9.54545 9.54545 8.85353 9.54545 8C9.54545 7.14647 8.85353 6.45455 8 6.45455ZM5.45455 8C5.45455 6.59418 6.59418 5.45455 8 5.45455C9.40582 5.45455 10.5455 6.59418 10.5455 8C10.5455 9.40582 9.40582 10.5455 8 10.5455C6.59418 10.5455 5.45455 9.40582 5.45455 8Z" fill="white"/>
</svg>
