<svg width="16" height="16" viewBox="0 0 16 16" fill="none" xmlns="http://www.w3.org/2000/svg">
<path fill-rule="evenodd" clip-rule="evenodd" d="M5.49023 -2.05701e-08C5.75013 -9.20953e-09 5.96082 0.21069 5.96082 0.470588L5.96082 5.4902C5.96082 5.7501 5.75013 5.96078 5.49023 5.96078L0.470618 5.96078C0.21072 5.96078 3.02662e-05 5.7501 3.02776e-05 5.4902C3.0289e-05 5.2303 0.21072 5.01961 0.470619 5.01961L4.35413 5.01961L0.137863 0.803344C-0.0459137 0.619568 -0.0459137 0.321608 0.137863 0.137832C0.321639 -0.0459441 0.619599 -0.0459441 0.803375 0.137832L5.01964 4.3541L5.01964 0.470588C5.01964 0.210689 5.23033 -3.19306e-08 5.49023 -2.05701e-08Z" fill="#D9D9D9"/>
<path fill-rule="evenodd" clip-rule="evenodd" d="M16 5.4902C16 5.7501 15.7893 5.96078 15.5294 5.96078L10.5098 5.96078C10.2499 5.96078 10.0392 5.75009 10.0392 5.4902L10.0392 0.470588C10.0392 0.210689 10.2499 -5.02689e-07 10.5098 -4.79968e-07C10.7697 -4.57247e-07 10.9804 0.210689 10.9804 0.470588L10.9804 4.3541L15.1967 0.137832C15.3804 -0.0459443 15.6784 -0.0459442 15.8622 0.137832C16.0459 0.321608 16.0459 0.619568 15.8622 0.803344L11.6459 5.01961L15.5294 5.01961C15.7893 5.01961 16 5.2303 16 5.4902Z" fill="#D9D9D9"/>
<path fill-rule="evenodd" clip-rule="evenodd" d="M10.5098 16C10.2499 16 10.0392 15.7893 10.0392 15.5294L10.0392 10.5098C10.0392 10.2499 10.2499 10.0392 10.5098 10.0392L15.5294 10.0392C15.7893 10.0392 16 10.2499 16 10.5098C16 10.7697 15.7893 10.9804 15.5294 10.9804L11.6459 10.9804L15.8621 15.1967C16.0459 15.3805 16.0459 15.6784 15.8621 15.8622C15.6784 16.046 15.3804 16.046 15.1966 15.8622L10.9804 11.6459L10.9804 15.5294C10.9804 15.7893 10.7697 16 10.5098 16Z" fill="#D9D9D9"/>
<path fill-rule="evenodd" clip-rule="evenodd" d="M0 10.5098C0 10.2499 0.21069 10.0392 0.470588 10.0392H5.4902C5.7501 10.0392 5.96078 10.2499 5.96078 10.5098V15.5294C5.96078 15.7893 5.7501 16 5.4902 16C5.2303 16 5.01961 15.7893 5.01961 15.5294V11.6459L0.803345 15.8622C0.619569 16.046 0.321608 16.046 0.137832 15.8622C-0.0459438 15.6784 -0.0459438 15.3805 0.137832 15.1967L4.3541 10.9804H0.470588C0.21069 10.9804 0 10.7697 0 10.5098Z" fill="#D9D9D9"/>
<path fill-rule="evenodd" clip-rule="evenodd" d="M6.34583 6.81641C6.34583 6.55651 6.55651 6.34583 6.81641 6.34583H9.18364C9.44354 6.34583 9.65423 6.55651 9.65423 6.81641V9.18364C9.65423 9.44354 9.44354 9.65423 9.18364 9.65423H6.81641C6.55651 9.65423 6.34583 9.44354 6.34583 9.18364V6.81641ZM7.287 7.287V8.71305H8.71305V7.287H7.287Z" fill="#D9D9D9"/>
</svg>
