<svg width="16" height="16" viewBox="0 0 16 16" fill="none" xmlns="http://www.w3.org/2000/svg">
<path fill-rule="evenodd" clip-rule="evenodd" d="M2.14379 0.941176C1.82484 0.941176 1.51895 1.06788 1.29341 1.29341C1.06788 1.51895 0.941176 1.82484 0.941176 2.14379V13.8562C0.941176 14.1752 1.06788 14.4811 1.29341 14.7066C1.51895 14.9321 1.82484 15.0588 2.14379 15.0588H3.34641V8.8366C3.34641 8.5767 3.55709 8.36601 3.81699 8.36601H12.183C12.4429 8.36601 12.6536 8.5767 12.6536 8.8366V15.0588H13.8562C14.1752 15.0588 14.4811 14.9321 14.7066 14.7066C14.9321 14.4811 15.0588 14.1752 15.0588 13.8562V4.84852L11.1515 0.941176H4.28758V4.18301H10.5098C10.7697 4.18301 10.9804 4.3937 10.9804 4.65359C10.9804 4.91349 10.7697 5.12418 10.5098 5.12418H3.81699C3.55709 5.12418 3.34641 4.91349 3.34641 4.65359V0.941176H2.14379ZM2.14379 0C1.57522 0 1.02994 0.225863 0.627902 0.627902C0.225863 1.02994 0 1.57522 0 2.14379V13.8562C0 14.4248 0.225863 14.9701 0.627902 15.3721C1.02994 15.7741 1.57522 16 2.14379 16H13.8562C14.4248 16 14.9701 15.7741 15.3721 15.3721C15.7741 14.9701 16 14.4248 16 13.8562V4.65359C16 4.52879 15.9504 4.40909 15.8622 4.32084L11.6792 0.137832C11.5909 0.0495797 11.4712 0 11.3464 0H2.14379ZM11.7124 15.0588V9.30719H4.28758V15.0588H11.7124Z" fill="#D9D9D9"/>
</svg>
