<svg width="17" height="17" viewBox="0 0 17 17" fill="none" xmlns="http://www.w3.org/2000/svg">
  <path fill-rule="evenodd" clip-rule="evenodd"
    d="M8.38189 0.693787C8.50669 0.693787 8.62639 0.743366 8.71464 0.831619L16.4601 8.57711C16.6439 8.76088 16.6439 9.05884 16.4601 9.24262L15.9205 9.78228H16.1274C16.3873 9.78228 16.598 9.99297 16.598 10.2529V14.0425C16.598 14.3024 16.3873 14.5131 16.1274 14.5131H14.7844C14.5245 14.5131 14.3138 14.3024 14.3138 14.0425V13.5194C14.1565 13.4272 13.9101 13.3087 13.6108 13.2369C13.5126 13.2133 13.3547 13.2048 13.1127 13.2157C12.937 13.2236 12.745 13.2398 12.5278 13.2582C12.498 13.2607 12.4677 13.2632 12.4369 13.2658L9.14679 16.556C8.96302 16.7397 8.66506 16.7397 8.48128 16.556L0.735794 8.81048C0.552017 8.6267 0.552017 8.32874 0.735793 8.14496L8.04913 0.831619C8.13738 0.743366 8.25708 0.693787 8.38189 0.693787ZM12.1914 12.3416C12.1977 12.3411 12.2039 12.3406 12.2102 12.3401C12.2843 12.3342 12.3586 12.3279 12.4325 12.3216C12.6557 12.3028 12.8747 12.2843 13.0704 12.2755C13.3269 12.264 13.5962 12.2655 13.8304 12.3217C14.4365 12.4672 14.9002 12.7552 15.0856 12.9098C15.1929 12.9992 15.255 13.1316 15.255 13.2713V13.5719H15.6568V10.7235H14.7844C14.6507 10.7235 14.5233 10.6666 14.4341 10.5671C14.1679 10.2704 13.7376 9.80662 13.3151 9.38323C13.1037 9.1714 12.8975 8.97294 12.7167 8.81171C12.5289 8.64423 12.3914 8.53775 12.3123 8.4913C11.8219 8.20346 11.3127 8.20029 11.0221 8.23381C11.0223 8.23379 11.022 8.23386 11.0211 8.23402C11.0145 8.23537 10.9748 8.24339 10.8922 8.26824C10.8087 8.29339 10.7012 8.3296 10.577 8.37583C10.3285 8.46837 10.0253 8.59651 9.72979 8.74625C9.43129 8.89748 9.15669 9.06263 8.95495 9.22596C8.733 9.40564 8.68286 9.51636 8.67855 9.5399C8.67785 9.5437 8.67732 9.54708 8.67692 9.55008C8.70594 9.56701 8.77218 9.59419 8.88949 9.60646C9.02352 9.62047 9.17542 9.6094 9.30594 9.57914C9.4193 9.55285 9.47393 9.52239 9.48867 9.51417C9.4931 9.5117 9.49393 9.51123 9.49167 9.5135C9.74392 9.26124 10.161 9.0769 10.573 9.14073C10.7946 9.17506 11.015 9.28321 11.1802 9.48839C11.2512 9.57652 11.3063 9.67532 11.3472 9.78228H12.5505C12.8104 9.78228 13.0211 9.99297 13.0211 10.2529C13.0211 10.5128 12.8104 10.7235 12.5505 10.7235H11.3978C11.3148 11.0711 11.1077 11.3778 10.7262 11.5012C10.2082 11.6686 9.6618 11.3877 9.22061 10.947C9.22055 10.9471 9.20859 10.9368 9.17567 10.9206C9.13848 10.9023 9.08675 10.8823 9.01932 10.8625C8.88762 10.8239 8.72509 10.7942 8.55203 10.7725C8.688 10.9894 8.84746 11.216 9.02503 11.4282C9.4336 11.9165 9.87055 12.2478 10.2743 12.3151C10.9223 12.4231 11.5784 12.3906 12.1857 12.3421M7.75948 9.78228C7.72934 9.65457 7.7261 9.51583 7.7528 9.37018C7.82162 8.99482 8.10889 8.69997 8.36272 8.49446C8.63677 8.27259 8.97632 8.07291 9.30444 7.90667C9.63551 7.73894 9.97148 7.59699 10.2486 7.49381C10.5056 7.39813 10.7628 7.31631 10.9142 7.29884C11.3151 7.25259 12.0558 7.24941 12.7887 7.67961C12.9542 7.77676 13.1507 7.93766 13.3432 8.10931C13.5426 8.28722 13.7629 8.49963 13.9813 8.7184C14.2682 9.00598 14.5574 9.31019 14.7999 9.57185L15.4619 8.90986L8.38189 1.82989L1.73406 8.47772L8.81404 15.5577L11.0453 13.3264C10.7447 13.3197 10.4333 13.2958 10.1196 13.2435C9.37443 13.1193 8.75206 12.5686 8.3032 12.0321C7.9366 11.594 7.6406 11.1109 7.44162 10.7235H6.85938C6.59948 10.7235 6.38879 10.5128 6.38879 10.2529C6.38879 9.99297 6.59948 9.78228 6.85938 9.78228H7.75948Z"
    fill="#E9E9E9" />
</svg>