<svg width="17" height="17" viewBox="0 0 17 17" fill="none" xmlns="http://www.w3.org/2000/svg">
  <path fill-rule="evenodd" clip-rule="evenodd"
    d="M16.4515 0.840233C16.6468 1.0355 16.6468 1.35208 16.4515 1.54734L11.4717 6.52712H15.2646C15.5408 6.52712 15.7646 6.75098 15.7646 7.02712C15.7646 7.30326 15.5408 7.52712 15.2646 7.52712H10.2646C9.98849 7.52712 9.76463 7.30326 9.76463 7.02712V2.02712C9.76463 1.75098 9.98849 1.52712 10.2646 1.52712C10.5408 1.52712 10.7646 1.75098 10.7646 2.02712V5.82001L15.7444 0.840233C15.9397 0.644971 16.2563 0.644971 16.4515 0.840233ZM1.43129 10.3605C1.43129 10.0843 1.65515 9.86045 1.93129 9.86045H6.93129C7.20744 9.86045 7.43129 10.0843 7.43129 10.3605V15.3605C7.43129 15.6366 7.20744 15.8605 6.93129 15.8605C6.65515 15.8605 6.43129 15.6366 6.43129 15.3605V11.5676L1.45151 16.5473C1.25625 16.7426 0.93967 16.7426 0.744408 16.5473C0.549146 16.3521 0.549146 16.0355 0.744408 15.8402L5.72419 10.8605H1.93129C1.65515 10.8605 1.43129 10.6366 1.43129 10.3605Z"
    fill="currentColor" />
</svg>