<svg width="17" height="17" viewBox="0 0 17 17" fill="none" xmlns="http://www.w3.org/2000/svg">
  <path fill-rule="evenodd" clip-rule="evenodd"
    d="M11.098 1.69379C10.8218 1.69379 10.598 1.46993 10.598 1.19379C10.598 0.917644 10.8218 0.693787 11.098 0.693787H16.098C16.3741 0.693787 16.598 0.917644 16.598 1.19379V6.19379C16.598 6.46993 16.3741 6.69379 16.098 6.69379C15.8218 6.69379 15.598 6.46993 15.598 6.19379V2.40089L10.6182 7.38067C10.4229 7.57594 10.1063 7.57594 9.91107 7.38067C9.71581 7.18541 9.71581 6.86883 9.91107 6.67357L14.8909 1.69379H11.098ZM7.28485 10.0069C7.48011 10.2022 7.48011 10.5187 7.28485 10.714L2.30507 15.6938H6.09796C6.3741 15.6938 6.59796 15.9176 6.59796 16.1938C6.59796 16.4699 6.3741 16.6938 6.09796 16.6938H1.09796C0.821819 16.6938 0.597961 16.4699 0.597961 16.1938V11.1938C0.597961 10.9176 0.821819 10.6938 1.09796 10.6938C1.3741 10.6938 1.59796 10.9176 1.59796 11.1938V14.9867L6.57774 10.0069C6.773 9.81164 7.08959 9.81164 7.28485 10.0069Z"
    fill="currentColor" />
</svg>