<svg width="16" height="16" viewBox="0 0 16 16" fill="none" xmlns="http://www.w3.org/2000/svg">
  <path fill-rule="evenodd" clip-rule="evenodd"
    d="M0 2.98038C0 2.72049 0.21069 2.5098 0.470588 2.5098H15.5294C15.7893 2.5098 16 2.72049 16 2.98038C16 3.24028 15.7893 3.45097 15.5294 3.45097H0.470588C0.21069 3.45097 0 3.24028 0 2.98038ZM0 7.99999C0 7.74009 0.21069 7.5294 0.470588 7.5294H15.5294C15.7893 7.5294 16 7.74009 16 7.99999C16 8.25989 15.7893 8.47058 15.5294 8.47058H0.470588C0.21069 8.47058 0 8.25989 0 7.99999ZM0 13.0196C0 12.7597 0.21069 12.549 0.470588 12.549H15.5294C15.7893 12.549 16 12.7597 16 13.0196C16 13.2795 15.7893 13.4902 15.5294 13.4902H0.470588C0.21069 13.4902 0 13.2795 0 13.0196Z"
    fill="#E9E9E9" />
</svg>