<svg width="17" height="17" viewBox="0 0 17 17" fill="none" xmlns="http://www.w3.org/2000/svg">
  <path fill-rule="evenodd" clip-rule="evenodd"
    d="M10.1671 1.58438C11.7416 1.96528 13.1378 2.95495 14.0276 4.29564L14.0332 4.30408L14.0384 4.31275C14.4207 4.94675 14.8327 5.71025 14.9396 6.55779C15.2836 6.62564 15.6524 6.76321 15.9477 7.05438C16.3385 7.41115 16.6255 7.95285 16.5959 8.54047C16.5953 8.82186 16.596 9.10603 16.5967 9.39139C16.5978 9.86642 16.599 10.3447 16.5945 10.8187L16.5942 10.848L16.5903 10.8771C16.5116 11.4548 16.1719 11.9669 15.707 12.2867C15.1176 12.7024 14.3936 12.6843 13.863 12.6185L13.8489 12.6167L13.8349 12.6141C13.2821 12.5114 13.0005 12.0016 12.9816 11.5771C12.9563 11.2756 12.9587 10.955 12.9608 10.6619C12.9618 10.5267 12.9627 10.3973 12.9609 10.2784L12.9608 10.2702C12.9615 9.94797 12.9612 9.62331 12.9608 9.29775C12.9602 8.80142 12.9596 8.30298 12.9629 7.80784L12.9629 7.79773L12.9635 7.78763C12.97 7.65681 12.981 7.4569 13.0402 7.263C13.1026 7.05854 13.2291 6.82524 13.4875 6.67124L13.4952 6.66665L13.5031 6.66235C13.6577 6.578 13.8267 6.53679 13.9813 6.51663C13.8743 5.94306 13.5823 5.37705 13.2366 4.80292C12.4742 3.65895 11.2781 2.81509 9.93984 2.49268L9.92841 2.48992C7.99114 1.97191 5.79772 2.67426 4.46899 4.17541C3.86619 4.85795 3.40515 5.66462 3.2324 6.51777C3.2822 6.52376 3.33297 6.53179 3.3828 6.54265C3.58782 6.58733 3.83713 6.69072 4.01427 6.94036L4.01929 6.94744L4.02404 6.9547C4.15675 7.15722 4.20094 7.37078 4.2197 7.54088C4.22912 7.62622 4.23286 7.70897 4.23548 7.77896C4.23611 7.7958 4.23667 7.81167 4.23721 7.82681C4.23906 7.87925 4.2406 7.92282 4.2436 7.96672L4.24466 7.98234L4.24468 7.99798C4.24565 9.06979 4.24636 10.1421 4.24499 11.2144L4.24497 11.2347L4.24316 11.255C4.23955 11.2957 4.23744 11.3358 4.23483 11.3857C4.23402 11.4012 4.23316 11.4177 4.23218 11.4354C4.22842 11.504 4.22312 11.587 4.21124 11.6728C4.18751 11.8439 4.13298 12.0642 3.97354 12.2631L3.9671 12.2711L3.96031 12.2788C3.78813 12.4752 3.5778 12.5622 3.39762 12.6045C3.83667 13.022 4.35813 13.3652 4.91858 13.6476C5.47748 13.902 6.12089 14.12 6.71995 14.2104C6.97497 13.5392 7.74041 13.3121 8.30984 13.4828C8.70519 13.5833 8.96961 13.8705 9.10215 14.1799C9.23295 14.4852 9.25395 14.8495 9.13436 15.1752C8.98094 15.6372 8.57291 15.899 8.18126 15.9767C7.78757 16.0548 7.30902 15.9678 6.98624 15.6081L6.9718 15.592L6.95891 15.5747C6.84932 15.4273 6.77849 15.3001 6.72872 15.1622C6.72796 15.1601 6.72721 15.158 6.72647 15.1559C5.95803 15.0618 5.16411 14.7895 4.51807 14.4947L4.51 14.491L4.50208 14.487C3.83376 14.1511 3.18672 13.7238 2.63976 13.1762C2.5153 13.0692 2.39493 12.9233 2.31285 12.7571C2.29113 12.7131 2.26998 12.6632 2.25227 12.6086C2.22722 12.6009 2.20345 12.5934 2.18242 12.5867C2.17282 12.5837 2.1638 12.5808 2.15548 12.5782C2.10329 12.5619 2.06684 12.5513 2.03528 12.5445L2.00274 12.5375L1.97151 12.526C1.25974 12.2638 0.663782 11.5879 0.609495 10.7743L0.608539 10.76L0.597961 8.62611L0.598178 8.61841C0.608539 8.25048 0.666814 7.75499 0.993022 7.35425C1.30048 6.92802 1.76786 6.64529 2.27158 6.54616C2.44854 5.40771 3.03619 4.37934 3.76201 3.55755C5.31516 1.80269 7.86994 0.972618 10.1671 1.58438ZM2.86492 7.43358C2.83688 7.43446 2.81172 7.43421 2.7922 7.43385L2.75833 7.43309L2.7337 7.43262C2.72659 7.43255 2.72152 7.43262 2.71817 7.43271L2.6823 7.4417L2.6328 7.44352C2.2821 7.45642 1.94647 7.63284 1.75222 7.9076L1.7413 7.92305L1.72916 7.93758C1.60387 8.08748 1.54896 8.31655 1.5392 8.63717L1.54955 10.7251C1.58106 11.1089 1.8775 11.4819 2.27285 11.6385C2.33498 11.6535 2.39223 11.671 2.43865 11.6856C2.45228 11.6899 2.46485 11.6939 2.47663 11.6976C2.51834 11.7108 2.55009 11.7208 2.58338 11.7299C2.66513 11.7521 2.68894 11.7478 2.69367 11.7468L2.71133 11.7431L2.72921 11.7407C2.80543 11.7307 2.88441 11.725 2.94694 11.7206C2.95605 11.72 2.96482 11.7193 2.97317 11.7187C3.04626 11.7134 3.09976 11.7086 3.14644 11.7006C3.20951 11.6898 3.23426 11.6774 3.24433 11.6699C3.25463 11.6529 3.26868 11.6185 3.27888 11.5449C3.28517 11.4996 3.28888 11.4487 3.29241 11.3844C3.29305 11.3728 3.2937 11.3603 3.29438 11.3472C3.29678 11.3009 3.2996 11.2467 3.30385 11.1939C3.30518 10.1341 3.30448 9.07409 3.30352 8.01376C3.30004 7.95807 3.29804 7.90099 3.29631 7.85142C3.29585 7.83828 3.29541 7.82567 3.29496 7.81376C3.29247 7.74729 3.28964 7.69279 3.28414 7.64294C3.2745 7.55557 3.25888 7.50746 3.2427 7.47774C3.24218 7.47741 3.24153 7.47702 3.24073 7.47657C3.23382 7.47263 3.21647 7.4646 3.18132 7.45694C3.10752 7.44085 3.02585 7.43841 2.89875 7.4346C2.88782 7.43427 2.87655 7.43393 2.86492 7.43358ZM7.57008 14.6782C7.57119 14.6828 7.57228 14.6874 7.57333 14.6918L7.57509 14.6993C7.58058 14.7224 7.58511 14.7415 7.58966 14.7598C7.59952 14.7995 7.60685 14.8247 7.61452 14.8459C7.62585 14.8773 7.64464 14.9196 7.69975 14.9964C7.75546 15.0484 7.86132 15.0858 7.9971 15.0588C8.14157 15.0301 8.21895 14.9494 8.2414 14.8794L8.24504 14.8681L8.24924 14.8569C8.28222 14.7697 8.28061 14.6502 8.23629 14.5468C8.19402 14.4481 8.13221 14.4029 8.07355 14.3888L8.05746 14.385L8.04168 14.38C7.83757 14.3158 7.64435 14.4284 7.60076 14.5402C7.58613 14.5805 7.57567 14.6264 7.57008 14.6782ZM14.4104 7.43299C14.1558 7.43652 14.0445 7.44018 13.9674 7.47704C13.9663 7.47806 13.9652 7.47943 13.9638 7.4815C13.9592 7.48805 13.9503 7.50368 13.9408 7.53485C13.9198 7.6035 13.9107 7.6936 13.904 7.82423C13.9008 8.31402 13.9014 8.80081 13.902 9.28966C13.9023 9.61442 13.9027 9.94009 13.902 10.2682C13.9045 10.4323 13.9032 10.5839 13.902 10.7288C13.8997 10.9986 13.8976 11.2456 13.9203 11.5084L13.9214 11.5212L13.9218 11.5341C13.9231 11.5784 13.9396 11.6253 13.9639 11.6585C13.9807 11.6814 13.9944 11.6895 14.0021 11.6924C14.4823 11.7496 14.885 11.7198 15.1641 11.5222L15.17 11.518C15.4263 11.3423 15.6061 11.0674 15.6537 10.7777C15.6577 10.3184 15.6566 9.86235 15.6555 9.40325C15.6548 9.11271 15.6541 8.82096 15.6547 8.52641L15.6547 8.51316L15.6555 8.49993C15.6709 8.23965 15.5384 7.94881 15.3065 7.73957L15.2974 7.73137L15.2887 7.7227C15.1074 7.54111 14.811 7.46064 14.4104 7.43299Z"
    fill="#E9E9E9" />
</svg>