<svg width="16" height="16" viewBox="0 0 16 16" fill="none" xmlns="http://www.w3.org/2000/svg">
<path fill-rule="evenodd" clip-rule="evenodd" d="M7.64645 0.146447C7.84171 -0.0488155 8.15829 -0.0488155 8.35355 0.146447L10.6036 2.39645C10.7988 2.59171 10.7988 2.90829 10.6036 3.10355C10.4083 3.29882 10.0917 3.29882 9.89645 3.10355L8.5 1.70711V7.5H14.2929L12.8964 6.10355C12.7012 5.90829 12.7012 5.59171 12.8964 5.39645C13.0917 5.20118 13.4083 5.20118 13.6036 5.39645L15.8536 7.64645C16.0488 7.84171 16.0488 8.15829 15.8536 8.35355L13.6036 10.6036C13.4083 10.7988 13.0917 10.7988 12.8964 10.6036C12.7012 10.4083 12.7012 10.0917 12.8964 9.89645L14.2929 8.5H8.5V14.2929L9.89645 12.8964C10.0917 12.7012 10.4083 12.7012 10.6036 12.8964C10.7988 13.0917 10.7988 13.4083 10.6036 13.6036L8.35355 15.8536C8.15829 16.0488 7.84171 16.0488 7.64645 15.8536L5.39645 13.6036C5.20118 13.4083 5.20118 13.0917 5.39645 12.8964C5.59171 12.7012 5.90829 12.7012 6.10355 12.8964L7.5 14.2929V8.5H1.70711L3.10355 9.89645C3.29882 10.0917 3.29882 10.4083 3.10355 10.6036C2.90829 10.7988 2.59171 10.7988 2.39645 10.6036L0.146447 8.35355C-0.0488155 8.15829 -0.0488155 7.84171 0.146447 7.64645L2.39645 5.39645C2.59171 5.20118 2.90829 5.20118 3.10355 5.39645C3.29882 5.59171 3.29882 5.90829 3.10355 6.10355L1.70711 7.5H7.5V1.70711L6.10355 3.10355C5.90829 3.29882 5.59171 3.29882 5.39645 3.10355C5.20118 2.90829 5.20118 2.59171 5.39645 2.39645L7.64645 0.146447Z" fill="white"/>
</svg>
