<svg width="16" height="16" viewBox="0 0 16 16" fill="none" xmlns="http://www.w3.org/2000/svg">
  <path fill-rule="evenodd" clip-rule="evenodd"
    d="M10.0392 0.470588C10.0392 0.21069 10.2499 0 10.5098 0H15.5294C15.7893 0 16 0.21069 16 0.470588V5.4902C16 5.75009 15.7893 5.96078 15.5294 5.96078C15.2695 5.96078 15.0589 5.75009 15.0589 5.4902V1.60669L12.5439 4.12166C12.3601 4.30543 12.0621 4.30543 11.8784 4.12166C11.6946 3.93788 11.6946 3.63992 11.8784 3.45614L14.3933 0.941176H10.5098C10.2499 0.941176 10.0392 0.730487 10.0392 0.470588Z"
    fill="#E9E9E9" />
  <path fill-rule="evenodd" clip-rule="evenodd"
    d="M15.5294 10.0392C15.7893 10.0392 16 10.2499 16 10.5098L16 15.5294C16 15.7893 15.7893 16 15.5294 16L10.5098 16C10.2499 16 10.0392 15.7893 10.0392 15.5294C10.0392 15.2695 10.2499 15.0588 10.5098 15.0588L14.3933 15.0588L11.8783 12.5439C11.6946 12.3601 11.6946 12.0621 11.8783 11.8783C12.0621 11.6946 12.3601 11.6946 12.5439 11.8783L15.0588 14.3933L15.0588 10.5098C15.0588 10.2499 15.2695 10.0392 15.5294 10.0392Z"
    fill="#E9E9E9" />
  <path fill-rule="evenodd" clip-rule="evenodd"
    d="M5.96075 0.470588C5.96075 0.21069 5.75006 0 5.49017 0H0.470558C0.21066 0 -3.00407e-05 0.21069 -3.00407e-05 0.470588V5.4902C-3.00407e-05 5.75009 0.21066 5.96078 0.470558 5.96078C0.730457 5.96078 0.941146 5.75009 0.941146 5.4902V1.60669L3.45611 4.12166C3.63989 4.30543 3.93785 4.30543 4.12163 4.12166C4.3054 3.93788 4.3054 3.63992 4.12163 3.45614L1.60666 0.941176H5.49017C5.75006 0.941176 5.96075 0.730487 5.96075 0.470588Z"
    fill="#E9E9E9" />
  <path fill-rule="evenodd" clip-rule="evenodd"
    d="M0.470588 10.0392C0.21069 10.0392 9.20953e-09 10.2499 2.05701e-08 10.5098L2.39984e-07 15.5294C2.51345e-07 15.7893 0.21069 16 0.470588 16L5.4902 16C5.7501 16 5.96078 15.7893 5.96078 15.5294C5.96078 15.2695 5.7501 15.0588 5.4902 15.0588L1.60669 15.0588L4.12166 12.5439C4.30543 12.3601 4.30543 12.0621 4.12166 11.8783C3.93788 11.6946 3.63992 11.6946 3.45614 11.8783L0.941177 14.3933L0.941176 10.5098C0.941176 10.2499 0.730487 10.0392 0.470588 10.0392Z"
    fill="#E9E9E9" />
  <path fill-rule="evenodd" clip-rule="evenodd"
    d="M5.01959 5.49021C5.01959 5.23031 5.23028 5.01962 5.49018 5.01962H10.5098C10.7697 5.01962 10.9804 5.23031 10.9804 5.49021V10.5098C10.9804 10.7697 10.7697 10.9804 10.5098 10.9804H5.49018C5.23028 10.9804 5.01959 10.7697 5.01959 10.5098V5.49021ZM5.96077 5.9608V10.0392H10.0392V5.9608H5.96077Z"
    fill="#E9E9E9" />
</svg>