<svg width="16" height="16" viewBox="0 0 16 16" fill="none" xmlns="http://www.w3.org/2000/svg">
<path fill-rule="evenodd" clip-rule="evenodd" d="M0 0.501953C0 0.225811 0.223858 0.00195312 0.5 0.00195312H8.32408C8.45669 0.00195312 8.58386 0.0546315 8.67763 0.1484L15.3996 6.87034C15.7841 7.25721 16 7.78054 16 8.32603C16 8.87153 15.7841 9.39486 15.3996 9.78173L9.78885 15.3924C9.59708 15.5844 9.36936 15.7367 9.11869 15.8406C8.86803 15.9445 8.59934 15.998 8.32799 15.998C8.05664 15.998 7.78796 15.9445 7.53729 15.8406C7.28662 15.7367 7.0589 15.5844 6.86713 15.3924L0.146653 8.67979C0.0527584 8.58601 0 8.45874 0 8.32603V0.501953ZM1 1.00195V8.11876L7.57423 14.6853C7.67312 14.7843 7.79096 14.8633 7.92023 14.9169C8.0495 14.9705 8.18806 14.998 8.32799 14.998C8.46793 14.998 8.60649 14.9705 8.73575 14.9169C8.86502 14.8633 8.98246 14.7847 9.08135 14.6857L14.6904 9.07673C14.6902 9.07692 14.6905 9.07654 14.6904 9.07673C14.8883 8.87728 15 8.60707 15 8.32603C15 8.04496 14.8889 7.7753 14.6909 7.57584C14.6907 7.57567 14.691 7.57601 14.6909 7.57584L8.11697 1.00195H1ZM3.91204 4.41399C3.91204 4.13785 4.1359 3.91399 4.41204 3.91399H4.41986C4.69601 3.91399 4.91986 4.13785 4.91986 4.41399C4.91986 4.69014 4.69601 4.91399 4.41986 4.91399H4.41204C4.1359 4.91399 3.91204 4.69014 3.91204 4.41399Z" fill="white"/>
</svg>
